<?xml version="1.0" encoding="UTF-8" standalone="no"?>
<!DOCTYPE svg PUBLIC "-//W3C//DTD SVG 1.1//EN"
 "http://www.w3.org/Graphics/SVG/1.1/DTD/svg11.dtd">
<!-- Generated by graphviz version 2.47.0 (20210316.0004)
 -->
<!-- Title: dependencies Pages: 1 -->
<svg width="646pt" height="284pt"
 viewBox="0.00 0.00 646.00 284.00" xmlns="http://www.w3.org/2000/svg" xmlns:xlink="http://www.w3.org/1999/xlink">
<g id="graph0" class="graph" transform="scale(1 1) rotate(0) translate(4 280)">
<title>dependencies</title>
<polygon fill="white" stroke="transparent" points="-4,4 -4,-280 642,-280 642,4 -4,4"/>
<text text-anchor="start" x="298.01" y="-42.4" font-family="Times-12" font-weight="bold" font-size="14.00">Legend</text>
<polygon fill="#ffffb3" stroke="transparent" points="85,-10 85,-30 105,-30 105,-10 85,-10"/>
<text text-anchor="start" x="108.63" y="-15.4" font-family="Times-12" font-size="14.00"> &#160;Declarations</text>
<polygon fill="#8dd3c7" stroke="transparent" points="198,-10 198,-30 218,-30 218,-10 198,-10"/>
<text text-anchor="start" x="221.73" y="-15.4" font-family="Times-12" font-size="14.00"> &#160;Module</text>
<polygon fill="#80b1d3" stroke="transparent" points="284,-10 284,-30 304,-30 304,-10 284,-10"/>
<text text-anchor="start" x="307.78" y="-15.4" font-family="Times-12" font-size="14.00"> &#160;Bootstrap</text>
<polygon fill="#fdb462" stroke="transparent" points="381,-10 381,-30 401,-30 401,-10 381,-10"/>
<text text-anchor="start" x="404.67" y="-15.4" font-family="Times-12" font-size="14.00"> &#160;Providers</text>
<polygon fill="#fb8072" stroke="transparent" points="477,-10 477,-30 497,-30 497,-10 477,-10"/>
<text text-anchor="start" x="500.73" y="-15.4" font-family="Times-12" font-size="14.00"> &#160;Exports</text>
<g id="clust1" class="cluster">
<title>cluster_AuthenticationModule</title>
<polygon fill="none" stroke="black" stroke-dasharray="1,5" points="8,-70 8,-268 630,-268 630,-70 8,-70"/>
</g>
<g id="clust6" class="cluster">
<title>cluster_AuthenticationModule_providers</title>
<polygon fill="none" stroke="black" points="132,-78 132,-130 622,-130 622,-78 132,-78"/>
</g>
<g id="clust3" class="cluster">
<title>cluster_AuthenticationModule_imports</title>
<polygon fill="none" stroke="black" points="16,-78 16,-130 124,-130 124,-78 16,-78"/>
</g>
<g id="clust4" class="cluster">
<title>cluster_AuthenticationModule_exports</title>
<polygon fill="none" stroke="black" points="195,-208 195,-260 355,-260 355,-208 195,-208"/>
</g>
<!-- UsersModule -->
<g id="node1" class="node">
<title>UsersModule</title>
<polygon fill="#8dd3c7" stroke="black" points="115.92,-122 112.92,-126 91.92,-126 88.92,-122 24.08,-122 24.08,-86 115.92,-86 115.92,-122"/>
<text text-anchor="middle" x="70" y="-99.8" font-family="Times,serif" font-size="14.00">UsersModule</text>
</g>
<!-- AuthenticationModule -->
<g id="node2" class="node">
<title>AuthenticationModule</title>
<polygon fill="#8dd3c7" stroke="black" points="346.25,-187 343.25,-191 322.25,-191 319.25,-187 203.75,-187 203.75,-151 346.25,-151 346.25,-187"/>
<text text-anchor="middle" x="275" y="-164.8" font-family="Times,serif" font-size="14.00">AuthenticationModule</text>
</g>
<!-- UsersModule&#45;&gt;AuthenticationModule -->
<g id="edge1" class="edge">
<title>UsersModule&#45;&gt;AuthenticationModule</title>
<path fill="none" stroke="black" d="M70,-122.11C70,-141.34 70,-169 70,-169 70,-169 193.59,-169 193.59,-169"/>
<polygon fill="black" stroke="black" points="193.59,-172.5 203.59,-169 193.59,-165.5 193.59,-172.5"/>
</g>
<!-- AuthenticationService  -->
<g id="node3" class="node">
<title>AuthenticationService </title>
<polygon fill="#fb8072" stroke="black" points="347.18,-252 202.82,-252 202.82,-216 347.18,-216 347.18,-252"/>
<text text-anchor="middle" x="275" y="-229.8" font-family="Times,serif" font-size="14.00">AuthenticationService </text>
</g>
<!-- AuthenticationModule&#45;&gt;AuthenticationService  -->
<g id="edge2" class="edge">
<title>AuthenticationModule&#45;&gt;AuthenticationService </title>
<path fill="none" stroke="black" stroke-dasharray="5,2" d="M275,-187.11C275,-187.11 275,-205.99 275,-205.99"/>
<polygon fill="black" stroke="black" points="271.5,-205.99 275,-215.99 278.5,-205.99 271.5,-205.99"/>
</g>
<!-- AuthenticationService -->
<g id="node4" class="node">
<title>AuthenticationService</title>
<ellipse fill="#fdb462" stroke="black" cx="517" cy="-104" rx="97.27" ry="18"/>
<text text-anchor="middle" x="517" y="-99.8" font-family="Times,serif" font-size="14.00">AuthenticationService</text>
</g>
<!-- AuthenticationService&#45;&gt;AuthenticationModule -->
<g id="edge3" class="edge">
<title>AuthenticationService&#45;&gt;AuthenticationModule</title>
<path fill="none" stroke="black" d="M517,-122.11C517,-141.34 517,-169 517,-169 517,-169 356.3,-169 356.3,-169"/>
<polygon fill="black" stroke="black" points="356.3,-165.5 346.3,-169 356.3,-172.5 356.3,-165.5"/>
</g>
<!-- JwtStrategy -->
<g id="node5" class="node">
<title>JwtStrategy</title>
<ellipse fill="#fdb462" stroke="black" cx="345" cy="-104" rx="56.76" ry="18"/>
<text text-anchor="middle" x="345" y="-99.8" font-family="Times,serif" font-size="14.00">JwtStrategy</text>
</g>
<!-- JwtStrategy&#45;&gt;AuthenticationModule -->
<g id="edge4" class="edge">
<title>JwtStrategy&#45;&gt;AuthenticationModule</title>
<path fill="none" stroke="black" d="M317.37,-119.73C317.37,-119.73 317.37,-140.65 317.37,-140.65"/>
<polygon fill="black" stroke="black" points="313.87,-140.65 317.37,-150.65 320.87,-140.65 313.87,-140.65"/>
</g>
<!-- LocalStrategy -->
<g id="node6" class="node">
<title>LocalStrategy</title>
<ellipse fill="#fdb462" stroke="black" cx="205" cy="-104" rx="65.41" ry="18"/>
<text text-anchor="middle" x="205" y="-99.8" font-family="Times,serif" font-size="14.00">LocalStrategy</text>
</g>
<!-- LocalStrategy&#45;&gt;AuthenticationModule -->
<g id="edge5" class="edge">
<title>LocalStrategy&#45;&gt;AuthenticationModule</title>
<path fill="none" stroke="black" d="M236.91,-119.73C236.91,-119.73 236.91,-140.65 236.91,-140.65"/>
<polygon fill="black" stroke="black" points="233.41,-140.65 236.91,-150.65 240.41,-140.65 233.41,-140.65"/>
</g>
</g>
</svg>
