<?xml version="1.0" encoding="UTF-8" standalone="no"?>
<!DOCTYPE svg PUBLIC "-//W3C//DTD SVG 1.1//EN"
 "http://www.w3.org/Graphics/SVG/1.1/DTD/svg11.dtd">
<!-- Generated by graphviz version 2.47.0 (20210316.0004)
 -->
<!-- Title: dependencies Pages: 1 -->
<svg width="504pt" height="284pt"
 viewBox="0.00 0.00 504.00 284.00" xmlns="http://www.w3.org/2000/svg" xmlns:xlink="http://www.w3.org/1999/xlink">
<g id="graph0" class="graph" transform="scale(1 1) rotate(0) translate(4 280)">
<title>dependencies</title>
<polygon fill="white" stroke="transparent" points="-4,4 -4,-280 500,-280 500,4 -4,4"/>
<text text-anchor="start" x="227.01" y="-42.4" font-family="Times-12" font-weight="bold" font-size="14.00">Legend</text>
<polygon fill="#ffffb3" stroke="transparent" points="14,-10 14,-30 34,-30 34,-10 14,-10"/>
<text text-anchor="start" x="37.63" y="-15.4" font-family="Times-12" font-size="14.00"> &#160;Declarations</text>
<polygon fill="#8dd3c7" stroke="transparent" points="127,-10 127,-30 147,-30 147,-10 127,-10"/>
<text text-anchor="start" x="150.73" y="-15.4" font-family="Times-12" font-size="14.00"> &#160;Module</text>
<polygon fill="#80b1d3" stroke="transparent" points="213,-10 213,-30 233,-30 233,-10 213,-10"/>
<text text-anchor="start" x="236.78" y="-15.4" font-family="Times-12" font-size="14.00"> &#160;Bootstrap</text>
<polygon fill="#fdb462" stroke="transparent" points="310,-10 310,-30 330,-30 330,-10 310,-10"/>
<text text-anchor="start" x="333.67" y="-15.4" font-family="Times-12" font-size="14.00"> &#160;Providers</text>
<polygon fill="#fb8072" stroke="transparent" points="406,-10 406,-30 426,-30 426,-10 406,-10"/>
<text text-anchor="start" x="429.73" y="-15.4" font-family="Times-12" font-size="14.00"> &#160;Exports</text>
<g id="clust1" class="cluster">
<title>cluster_MovesModule</title>
<polygon fill="none" stroke="black" stroke-dasharray="1,5" points="92,-70 92,-268 404,-268 404,-70 92,-70"/>
</g>
<g id="clust6" class="cluster">
<title>cluster_MovesModule_providers</title>
<polygon fill="none" stroke="black" points="248,-78 248,-130 396,-130 396,-78 248,-78"/>
</g>
<g id="clust3" class="cluster">
<title>cluster_MovesModule_imports</title>
<polygon fill="none" stroke="black" points="100,-78 100,-130 240,-130 240,-78 100,-78"/>
</g>
<g id="clust4" class="cluster">
<title>cluster_MovesModule_exports</title>
<polygon fill="none" stroke="black" points="188,-208 188,-260 304,-260 304,-208 188,-208"/>
</g>
<!-- InfoResultsModule -->
<g id="node1" class="node">
<title>InfoResultsModule</title>
<polygon fill="#8dd3c7" stroke="black" points="232.09,-122 229.09,-126 208.09,-126 205.09,-122 107.91,-122 107.91,-86 232.09,-86 232.09,-122"/>
<text text-anchor="middle" x="170" y="-99.8" font-family="Times,serif" font-size="14.00">InfoResultsModule</text>
</g>
<!-- MovesModule -->
<g id="node2" class="node">
<title>MovesModule</title>
<polygon fill="#8dd3c7" stroke="black" points="294.65,-187 291.65,-191 270.65,-191 267.65,-187 197.35,-187 197.35,-151 294.65,-151 294.65,-187"/>
<text text-anchor="middle" x="246" y="-164.8" font-family="Times,serif" font-size="14.00">MovesModule</text>
</g>
<!-- InfoResultsModule&#45;&gt;MovesModule -->
<g id="edge1" class="edge">
<title>InfoResultsModule&#45;&gt;MovesModule</title>
<path fill="none" stroke="black" d="M214.61,-122.11C214.61,-122.11 214.61,-140.99 214.61,-140.99"/>
<polygon fill="black" stroke="black" points="211.11,-140.99 214.61,-150.99 218.11,-140.99 211.11,-140.99"/>
</g>
<!-- MovesService  -->
<g id="node3" class="node">
<title>MovesService </title>
<polygon fill="#fb8072" stroke="black" points="295.58,-252 196.42,-252 196.42,-216 295.58,-216 295.58,-252"/>
<text text-anchor="middle" x="246" y="-229.8" font-family="Times,serif" font-size="14.00">MovesService </text>
</g>
<!-- MovesModule&#45;&gt;MovesService  -->
<g id="edge2" class="edge">
<title>MovesModule&#45;&gt;MovesService </title>
<path fill="none" stroke="black" stroke-dasharray="5,2" d="M246,-187.11C246,-187.11 246,-205.99 246,-205.99"/>
<polygon fill="black" stroke="black" points="242.5,-205.99 246,-215.99 249.5,-205.99 242.5,-205.99"/>
</g>
<!-- MovesService -->
<g id="node4" class="node">
<title>MovesService</title>
<ellipse fill="#fdb462" stroke="black" cx="322" cy="-104" rx="66.05" ry="18"/>
<text text-anchor="middle" x="322" y="-99.8" font-family="Times,serif" font-size="14.00">MovesService</text>
</g>
<!-- MovesService&#45;&gt;MovesModule -->
<g id="edge3" class="edge">
<title>MovesService&#45;&gt;MovesModule</title>
<path fill="none" stroke="black" d="M275.28,-116.84C275.28,-116.84 275.28,-140.52 275.28,-140.52"/>
<polygon fill="black" stroke="black" points="271.78,-140.52 275.28,-150.52 278.78,-140.52 271.78,-140.52"/>
</g>
</g>
</svg>
