<?xml version="1.0" encoding="UTF-8" standalone="no"?>
<!DOCTYPE svg PUBLIC "-//W3C//DTD SVG 1.1//EN"
 "http://www.w3.org/Graphics/SVG/1.1/DTD/svg11.dtd">
<!-- Generated by graphviz version 2.47.0 (20210316.0004)
 -->
<!-- Title: dependencies Pages: 1 -->
<svg width="504pt" height="284pt"
 viewBox="0.00 0.00 504.00 284.00" xmlns="http://www.w3.org/2000/svg" xmlns:xlink="http://www.w3.org/1999/xlink">
<g id="graph0" class="graph" transform="scale(1 1) rotate(0) translate(4 280)">
<title>dependencies</title>
<polygon fill="white" stroke="transparent" points="-4,4 -4,-280 500,-280 500,4 -4,4"/>
<text text-anchor="start" x="227.01" y="-42.4" font-family="Times-12" font-weight="bold" font-size="14.00">Legend</text>
<polygon fill="#ffffb3" stroke="transparent" points="14,-10 14,-30 34,-30 34,-10 14,-10"/>
<text text-anchor="start" x="37.63" y="-15.4" font-family="Times-12" font-size="14.00"> &#160;Declarations</text>
<polygon fill="#8dd3c7" stroke="transparent" points="127,-10 127,-30 147,-30 147,-10 127,-10"/>
<text text-anchor="start" x="150.73" y="-15.4" font-family="Times-12" font-size="14.00"> &#160;Module</text>
<polygon fill="#80b1d3" stroke="transparent" points="213,-10 213,-30 233,-30 233,-10 213,-10"/>
<text text-anchor="start" x="236.78" y="-15.4" font-family="Times-12" font-size="14.00"> &#160;Bootstrap</text>
<polygon fill="#fdb462" stroke="transparent" points="310,-10 310,-30 330,-30 330,-10 310,-10"/>
<text text-anchor="start" x="333.67" y="-15.4" font-family="Times-12" font-size="14.00"> &#160;Providers</text>
<polygon fill="#fb8072" stroke="transparent" points="406,-10 406,-30 426,-30 426,-10 406,-10"/>
<text text-anchor="start" x="429.73" y="-15.4" font-family="Times-12" font-size="14.00"> &#160;Exports</text>
<g id="clust1" class="cluster">
<title>cluster_MovesModule</title>
<polygon fill="none" stroke="black" stroke-dasharray="1,5" points="92,-70 92,-268 404,-268 404,-70 92,-70"/>
</g>
<g id="clust3" class="cluster">
<title>cluster_MovesModule_imports</title>
<polygon fill="none" stroke="black" points="256,-78 256,-130 396,-130 396,-78 256,-78"/>
</g>
<g id="clust4" class="cluster">
<title>cluster_MovesModule_exports</title>
<polygon fill="none" stroke="black" points="192,-208 192,-260 308,-260 308,-208 192,-208"/>
</g>
<g id="clust6" class="cluster">
<title>cluster_MovesModule_providers</title>
<polygon fill="none" stroke="black" points="100,-78 100,-130 248,-130 248,-78 100,-78"/>
</g>
<!-- InfoResultsModule -->
<g id="node1" class="node">
<title>InfoResultsModule</title>
<polygon fill="#8dd3c7" stroke="black" points="388.09,-122 385.09,-126 364.09,-126 361.09,-122 263.91,-122 263.91,-86 388.09,-86 388.09,-122"/>
<text text-anchor="middle" x="326" y="-99.8" font-family="Times,serif" font-size="14.00">InfoResultsModule</text>
</g>
<!-- MovesModule -->
<g id="node2" class="node">
<title>MovesModule</title>
<polygon fill="#8dd3c7" stroke="black" points="298.65,-187 295.65,-191 274.65,-191 271.65,-187 201.35,-187 201.35,-151 298.65,-151 298.65,-187"/>
<text text-anchor="middle" x="250" y="-164.8" font-family="Times,serif" font-size="14.00">MovesModule</text>
</g>
<!-- InfoResultsModule&#45;&gt;MovesModule -->
<g id="edge1" class="edge">
<title>InfoResultsModule&#45;&gt;MovesModule</title>
<path fill="none" stroke="black" d="M281.39,-122.11C281.39,-122.11 281.39,-140.99 281.39,-140.99"/>
<polygon fill="black" stroke="black" points="277.89,-140.99 281.39,-150.99 284.89,-140.99 277.89,-140.99"/>
</g>
<!-- MovesService  -->
<g id="node3" class="node">
<title>MovesService </title>
<polygon fill="#fb8072" stroke="black" points="299.58,-252 200.42,-252 200.42,-216 299.58,-216 299.58,-252"/>
<text text-anchor="middle" x="250" y="-229.8" font-family="Times,serif" font-size="14.00">MovesService </text>
</g>
<!-- MovesModule&#45;&gt;MovesService  -->
<g id="edge2" class="edge">
<title>MovesModule&#45;&gt;MovesService </title>
<path fill="none" stroke="black" stroke-dasharray="5,2" d="M250,-187.11C250,-187.11 250,-205.99 250,-205.99"/>
<polygon fill="black" stroke="black" points="246.5,-205.99 250,-215.99 253.5,-205.99 246.5,-205.99"/>
</g>
<!-- MovesService -->
<g id="node4" class="node">
<title>MovesService</title>
<ellipse fill="#fdb462" stroke="black" cx="174" cy="-104" rx="66.05" ry="18"/>
<text text-anchor="middle" x="174" y="-99.8" font-family="Times,serif" font-size="14.00">MovesService</text>
</g>
<!-- MovesService&#45;&gt;MovesModule -->
<g id="edge3" class="edge">
<title>MovesService&#45;&gt;MovesModule</title>
<path fill="none" stroke="black" d="M220.72,-116.84C220.72,-116.84 220.72,-140.52 220.72,-140.52"/>
<polygon fill="black" stroke="black" points="217.22,-140.52 220.72,-150.52 224.22,-140.52 217.22,-140.52"/>
</g>
</g>
</svg>
