<?xml version="1.0" encoding="UTF-8" standalone="no"?>
<!DOCTYPE svg PUBLIC "-//W3C//DTD SVG 1.1//EN"
 "http://www.w3.org/Graphics/SVG/1.1/DTD/svg11.dtd">
<!-- Generated by graphviz version 2.47.0 (20210316.0004)
 -->
<!-- Title: dependencies Pages: 1 -->
<svg width="1189pt" height="211pt"
 viewBox="0.00 0.00 1189.00 211.00" xmlns="http://www.w3.org/2000/svg" xmlns:xlink="http://www.w3.org/1999/xlink">
<g id="graph0" class="graph" transform="scale(1 1) rotate(0) translate(4 207)">
<title>dependencies</title>
<polygon fill="white" stroke="transparent" points="-4,4 -4,-207 1185,-207 1185,4 -4,4"/>
<text text-anchor="start" x="569.51" y="-42.4" font-family="Times-12" font-weight="bold" font-size="14.00">Legend</text>
<polygon fill="#ffffb3" stroke="transparent" points="356.5,-10 356.5,-30 376.5,-30 376.5,-10 356.5,-10"/>
<text text-anchor="start" x="380.13" y="-15.4" font-family="Times-12" font-size="14.00"> &#160;Declarations</text>
<polygon fill="#8dd3c7" stroke="transparent" points="469.5,-10 469.5,-30 489.5,-30 489.5,-10 469.5,-10"/>
<text text-anchor="start" x="493.23" y="-15.4" font-family="Times-12" font-size="14.00"> &#160;Module</text>
<polygon fill="#80b1d3" stroke="transparent" points="555.5,-10 555.5,-30 575.5,-30 575.5,-10 555.5,-10"/>
<text text-anchor="start" x="579.28" y="-15.4" font-family="Times-12" font-size="14.00"> &#160;Bootstrap</text>
<polygon fill="#fdb462" stroke="transparent" points="652.5,-10 652.5,-30 672.5,-30 672.5,-10 652.5,-10"/>
<text text-anchor="start" x="676.17" y="-15.4" font-family="Times-12" font-size="14.00"> &#160;Providers</text>
<polygon fill="#fb8072" stroke="transparent" points="748.5,-10 748.5,-30 768.5,-30 768.5,-10 748.5,-10"/>
<text text-anchor="start" x="772.23" y="-15.4" font-family="Times-12" font-size="14.00"> &#160;Exports</text>
<g id="clust1" class="cluster">
<title>cluster_AppModule</title>
<polygon fill="none" stroke="black" stroke-dasharray="1,5" points="8,-70 8,-195 1173,-195 1173,-70 8,-70"/>
</g>
<g id="clust3" class="cluster">
<title>cluster_AppModule_imports</title>
<polygon fill="none" stroke="black" points="154,-78 154,-130 1165,-130 1165,-78 154,-78"/>
</g>
<g id="clust6" class="cluster">
<title>cluster_AppModule_providers</title>
<polygon fill="none" stroke="black" points="16,-78 16,-130 146,-130 146,-78 16,-78"/>
</g>
<!-- AnalysisModule -->
<g id="node1" class="node">
<title>AnalysisModule</title>
<polygon fill="#8dd3c7" stroke="black" points="1157.04,-122 1154.04,-126 1133.04,-126 1130.04,-122 1048.96,-122 1048.96,-86 1157.04,-86 1157.04,-122"/>
<text text-anchor="middle" x="1103" y="-99.8" font-family="Times,serif" font-size="14.00">AnalysisModule</text>
</g>
<!-- AppModule -->
<g id="node9" class="node">
<title>AppModule</title>
<polygon fill="#8dd3c7" stroke="black" points="621.66,-187 618.66,-191 597.66,-191 594.66,-187 538.34,-187 538.34,-151 621.66,-151 621.66,-187"/>
<text text-anchor="middle" x="580" y="-164.8" font-family="Times,serif" font-size="14.00">AppModule</text>
</g>
<!-- AnalysisModule&#45;&gt;AppModule -->
<g id="edge1" class="edge">
<title>AnalysisModule&#45;&gt;AppModule</title>
<path fill="none" stroke="black" d="M1103,-122.01C1103,-144.49 1103,-180 1103,-180 1103,-180 631.92,-180 631.92,-180"/>
<polygon fill="black" stroke="black" points="631.92,-176.5 621.92,-180 631.92,-183.5 631.92,-176.5"/>
</g>
<!-- AuthenticationModule -->
<g id="node2" class="node">
<title>AuthenticationModule</title>
<polygon fill="#8dd3c7" stroke="black" points="1030.25,-122 1027.25,-126 1006.25,-126 1003.25,-122 887.75,-122 887.75,-86 1030.25,-86 1030.25,-122"/>
<text text-anchor="middle" x="959" y="-99.8" font-family="Times,serif" font-size="14.00">AuthenticationModule</text>
</g>
<!-- AuthenticationModule&#45;&gt;AppModule -->
<g id="edge2" class="edge">
<title>AuthenticationModule&#45;&gt;AppModule</title>
<path fill="none" stroke="black" d="M959,-122.13C959,-142.57 959,-173 959,-173 959,-173 632.01,-173 632.01,-173"/>
<polygon fill="black" stroke="black" points="632.01,-169.5 622.01,-173 632.01,-176.5 632.01,-169.5"/>
</g>
<!-- ChessModule -->
<g id="node3" class="node">
<title>ChessModule</title>
<polygon fill="#8dd3c7" stroke="black" points="869.49,-122 866.49,-126 845.49,-126 842.49,-122 776.51,-122 776.51,-86 869.49,-86 869.49,-122"/>
<text text-anchor="middle" x="823" y="-99.8" font-family="Times,serif" font-size="14.00">ChessModule</text>
</g>
<!-- ChessModule&#45;&gt;AppModule -->
<g id="edge3" class="edge">
<title>ChessModule&#45;&gt;AppModule</title>
<path fill="none" stroke="black" d="M823,-122.27C823,-140.56 823,-166 823,-166 823,-166 631.77,-166 631.77,-166"/>
<polygon fill="black" stroke="black" points="631.77,-162.5 621.77,-166 631.77,-169.5 631.77,-162.5"/>
</g>
<!-- DatabaseModule -->
<g id="node4" class="node">
<title>DatabaseModule</title>
<polygon fill="#8dd3c7" stroke="black" points="758.35,-122 755.35,-126 734.35,-126 731.35,-122 647.65,-122 647.65,-86 758.35,-86 758.35,-122"/>
<text text-anchor="middle" x="703" y="-99.8" font-family="Times,serif" font-size="14.00">DatabaseModule</text>
</g>
<!-- DatabaseModule&#45;&gt;AppModule -->
<g id="edge4" class="edge">
<title>DatabaseModule&#45;&gt;AppModule</title>
<path fill="none" stroke="black" d="M703,-122.01C703,-138.05 703,-159 703,-159 703,-159 631.99,-159 631.99,-159"/>
<polygon fill="black" stroke="black" points="631.99,-155.5 621.99,-159 631.99,-162.5 631.99,-155.5"/>
</g>
<!-- ElitedbModule -->
<g id="node5" class="node">
<title>ElitedbModule</title>
<polygon fill="#8dd3c7" stroke="black" points="629.99,-122 626.99,-126 605.99,-126 602.99,-122 530.01,-122 530.01,-86 629.99,-86 629.99,-122"/>
<text text-anchor="middle" x="580" y="-99.8" font-family="Times,serif" font-size="14.00">ElitedbModule</text>
</g>
<!-- ElitedbModule&#45;&gt;AppModule -->
<g id="edge5" class="edge">
<title>ElitedbModule&#45;&gt;AppModule</title>
<path fill="none" stroke="black" d="M580,-122.11C580,-122.11 580,-140.99 580,-140.99"/>
<polygon fill="black" stroke="black" points="576.5,-140.99 580,-150.99 583.5,-140.99 576.5,-140.99"/>
</g>
<!-- InfoResultsModule -->
<g id="node6" class="node">
<title>InfoResultsModule</title>
<polygon fill="#8dd3c7" stroke="black" points="512.09,-122 509.09,-126 488.09,-126 485.09,-122 387.91,-122 387.91,-86 512.09,-86 512.09,-122"/>
<text text-anchor="middle" x="450" y="-99.8" font-family="Times,serif" font-size="14.00">InfoResultsModule</text>
</g>
<!-- InfoResultsModule&#45;&gt;AppModule -->
<g id="edge6" class="edge">
<title>InfoResultsModule&#45;&gt;AppModule</title>
<path fill="none" stroke="black" d="M450,-122.01C450,-138.05 450,-159 450,-159 450,-159 528.15,-159 528.15,-159"/>
<polygon fill="black" stroke="black" points="528.15,-162.5 538.15,-159 528.15,-155.5 528.15,-162.5"/>
</g>
<!-- MovesModule -->
<g id="node7" class="node">
<title>MovesModule</title>
<polygon fill="#8dd3c7" stroke="black" points="369.65,-122 366.65,-126 345.65,-126 342.65,-122 272.35,-122 272.35,-86 369.65,-86 369.65,-122"/>
<text text-anchor="middle" x="321" y="-99.8" font-family="Times,serif" font-size="14.00">MovesModule</text>
</g>
<!-- MovesModule&#45;&gt;AppModule -->
<g id="edge7" class="edge">
<title>MovesModule&#45;&gt;AppModule</title>
<path fill="none" stroke="black" d="M321,-122.27C321,-140.56 321,-166 321,-166 321,-166 528.1,-166 528.1,-166"/>
<polygon fill="black" stroke="black" points="528.1,-169.5 538.1,-166 528.1,-162.5 528.1,-169.5"/>
</g>
<!-- UsersModule -->
<g id="node8" class="node">
<title>UsersModule</title>
<polygon fill="#8dd3c7" stroke="black" points="253.92,-122 250.92,-126 229.92,-126 226.92,-122 162.08,-122 162.08,-86 253.92,-86 253.92,-122"/>
<text text-anchor="middle" x="208" y="-99.8" font-family="Times,serif" font-size="14.00">UsersModule</text>
</g>
<!-- UsersModule&#45;&gt;AppModule -->
<g id="edge8" class="edge">
<title>UsersModule&#45;&gt;AppModule</title>
<path fill="none" stroke="black" d="M208,-122.13C208,-142.57 208,-173 208,-173 208,-173 528.05,-173 528.05,-173"/>
<polygon fill="black" stroke="black" points="528.05,-176.5 538.05,-173 528.05,-169.5 528.05,-176.5"/>
</g>
<!-- AppService -->
<g id="node10" class="node">
<title>AppService</title>
<ellipse fill="#fdb462" stroke="black" cx="81" cy="-104" rx="56.74" ry="18"/>
<text text-anchor="middle" x="81" y="-99.8" font-family="Times,serif" font-size="14.00">AppService</text>
</g>
<!-- AppService&#45;&gt;AppModule -->
<g id="edge9" class="edge">
<title>AppService&#45;&gt;AppModule</title>
<path fill="none" stroke="black" d="M81,-122.01C81,-144.49 81,-180 81,-180 81,-180 528.31,-180 528.31,-180"/>
<polygon fill="black" stroke="black" points="528.31,-183.5 538.31,-180 528.31,-176.5 528.31,-183.5"/>
</g>
</g>
</svg>
