<?xml version="1.0" encoding="UTF-8" standalone="no"?>
<!DOCTYPE svg PUBLIC "-//W3C//DTD SVG 1.1//EN"
 "http://www.w3.org/Graphics/SVG/1.1/DTD/svg11.dtd">
<!-- Generated by graphviz version 2.47.0 (20210316.0004)
 -->
<!-- Title: dependencies Pages: 1 -->
<svg width="541pt" height="211pt"
 viewBox="0.00 0.00 541.00 211.00" xmlns="http://www.w3.org/2000/svg" xmlns:xlink="http://www.w3.org/1999/xlink">
<g id="graph0" class="graph" transform="scale(1 1) rotate(0) translate(4 207)">
<title>dependencies</title>
<polygon fill="white" stroke="transparent" points="-4,4 -4,-207 537,-207 537,4 -4,4"/>
<text text-anchor="start" x="245.51" y="-42.4" font-family="Times-12" font-weight="bold" font-size="14.00">Legend</text>
<polygon fill="#ffffb3" stroke="transparent" points="32.5,-10 32.5,-30 52.5,-30 52.5,-10 32.5,-10"/>
<text text-anchor="start" x="56.13" y="-15.4" font-family="Times-12" font-size="14.00"> &#160;Declarations</text>
<polygon fill="#8dd3c7" stroke="transparent" points="145.5,-10 145.5,-30 165.5,-30 165.5,-10 145.5,-10"/>
<text text-anchor="start" x="169.23" y="-15.4" font-family="Times-12" font-size="14.00"> &#160;Module</text>
<polygon fill="#80b1d3" stroke="transparent" points="231.5,-10 231.5,-30 251.5,-30 251.5,-10 231.5,-10"/>
<text text-anchor="start" x="255.28" y="-15.4" font-family="Times-12" font-size="14.00"> &#160;Bootstrap</text>
<polygon fill="#fdb462" stroke="transparent" points="328.5,-10 328.5,-30 348.5,-30 348.5,-10 328.5,-10"/>
<text text-anchor="start" x="352.17" y="-15.4" font-family="Times-12" font-size="14.00"> &#160;Providers</text>
<polygon fill="#fb8072" stroke="transparent" points="424.5,-10 424.5,-30 444.5,-30 444.5,-10 424.5,-10"/>
<text text-anchor="start" x="448.23" y="-15.4" font-family="Times-12" font-size="14.00"> &#160;Exports</text>
<g id="clust1" class="cluster">
<title>cluster_AnalysisModule</title>
<polygon fill="none" stroke="black" stroke-dasharray="1,5" points="8,-70 8,-195 525,-195 525,-70 8,-70"/>
</g>
<g id="clust6" class="cluster">
<title>cluster_AnalysisModule_providers</title>
<polygon fill="none" stroke="black" points="16,-78 16,-130 517,-130 517,-78 16,-78"/>
</g>
<!-- AnalysisService -->
<g id="node1" class="node">
<title>AnalysisService</title>
<ellipse fill="#fdb462" stroke="black" cx="435" cy="-104" rx="73.57" ry="18"/>
<text text-anchor="middle" x="435" y="-99.8" font-family="Times,serif" font-size="14.00">AnalysisService</text>
</g>
<!-- AnalysisModule -->
<g id="node4" class="node">
<title>AnalysisModule</title>
<polygon fill="#8dd3c7" stroke="black" points="313.04,-187 310.04,-191 289.04,-191 286.04,-187 204.96,-187 204.96,-151 313.04,-151 313.04,-187"/>
<text text-anchor="middle" x="259" y="-164.8" font-family="Times,serif" font-size="14.00">AnalysisModule</text>
</g>
<!-- AnalysisService&#45;&gt;AnalysisModule -->
<g id="edge1" class="edge">
<title>AnalysisService&#45;&gt;AnalysisModule</title>
<path fill="none" stroke="black" d="M435,-122.11C435,-141.34 435,-169 435,-169 435,-169 323.24,-169 323.24,-169"/>
<polygon fill="black" stroke="black" points="323.24,-165.5 313.24,-169 323.24,-172.5 323.24,-165.5"/>
</g>
<!-- InfoResultsService -->
<g id="node2" class="node">
<title>InfoResultsService</title>
<ellipse fill="#fdb462" stroke="black" cx="259" cy="-104" rx="84.52" ry="18"/>
<text text-anchor="middle" x="259" y="-99.8" font-family="Times,serif" font-size="14.00">InfoResultsService</text>
</g>
<!-- InfoResultsService&#45;&gt;AnalysisModule -->
<g id="edge2" class="edge">
<title>InfoResultsService&#45;&gt;AnalysisModule</title>
<path fill="none" stroke="black" d="M259,-122.11C259,-122.11 259,-140.99 259,-140.99"/>
<polygon fill="black" stroke="black" points="255.5,-140.99 259,-150.99 262.5,-140.99 255.5,-140.99"/>
</g>
<!-- MovesService -->
<g id="node3" class="node">
<title>MovesService</title>
<ellipse fill="#fdb462" stroke="black" cx="90" cy="-104" rx="66.05" ry="18"/>
<text text-anchor="middle" x="90" y="-99.8" font-family="Times,serif" font-size="14.00">MovesService</text>
</g>
<!-- MovesService&#45;&gt;AnalysisModule -->
<g id="edge3" class="edge">
<title>MovesService&#45;&gt;AnalysisModule</title>
<path fill="none" stroke="black" d="M90,-122.11C90,-141.34 90,-169 90,-169 90,-169 194.6,-169 194.6,-169"/>
<polygon fill="black" stroke="black" points="194.6,-172.5 204.6,-169 194.6,-165.5 194.6,-172.5"/>
</g>
</g>
</svg>
