<?xml version="1.0" encoding="UTF-8" standalone="no"?>
<!DOCTYPE svg PUBLIC "-//W3C//DTD SVG 1.1//EN"
 "http://www.w3.org/Graphics/SVG/1.1/DTD/svg11.dtd">
<!-- Generated by graphviz version 2.47.0 (20210316.0004)
 -->
<!-- Title: dependencies Pages: 1 -->
<svg width="2444pt" height="382pt"
 viewBox="0.00 0.00 2444.00 382.00" xmlns="http://www.w3.org/2000/svg" xmlns:xlink="http://www.w3.org/1999/xlink">
<g id="graph0" class="graph" transform="scale(1 1) rotate(0) translate(4 378)">
<title>dependencies</title>
<polygon fill="white" stroke="transparent" points="-4,4 -4,-378 2440,-378 2440,4 -4,4"/>
<text text-anchor="start" x="1197.01" y="-42.4" font-family="Times-12" font-weight="bold" font-size="14.00">Legend</text>
<polygon fill="#ffffb3" stroke="transparent" points="984,-10 984,-30 1004,-30 1004,-10 984,-10"/>
<text text-anchor="start" x="1007.63" y="-15.4" font-family="Times-12" font-size="14.00"> &#160;Declarations</text>
<polygon fill="#8dd3c7" stroke="transparent" points="1097,-10 1097,-30 1117,-30 1117,-10 1097,-10"/>
<text text-anchor="start" x="1120.73" y="-15.4" font-family="Times-12" font-size="14.00"> &#160;Module</text>
<polygon fill="#80b1d3" stroke="transparent" points="1183,-10 1183,-30 1203,-30 1203,-10 1183,-10"/>
<text text-anchor="start" x="1206.78" y="-15.4" font-family="Times-12" font-size="14.00"> &#160;Bootstrap</text>
<polygon fill="#fdb462" stroke="transparent" points="1280,-10 1280,-30 1300,-30 1300,-10 1280,-10"/>
<text text-anchor="start" x="1303.67" y="-15.4" font-family="Times-12" font-size="14.00"> &#160;Providers</text>
<polygon fill="#fb8072" stroke="transparent" points="1376,-10 1376,-30 1396,-30 1396,-10 1376,-10"/>
<text text-anchor="start" x="1399.73" y="-15.4" font-family="Times-12" font-size="14.00"> &#160;Exports</text>
<g id="clust1" class="cluster">
<title>cluster_AnalysisModule</title>
<polygon fill="none" stroke="black" stroke-dasharray="1,5" points="8,-70 8,-206 526,-206 526,-70 8,-70"/>
</g>
<g id="clust6" class="cluster">
<title>cluster_AnalysisModule_providers</title>
<polygon fill="none" stroke="black" points="16,-78 16,-130 518,-130 518,-78 16,-78"/>
</g>
<g id="clust7" class="cluster">
<title>cluster_AppModule</title>
<polygon fill="none" stroke="black" stroke-dasharray="1,5" points="1217,-146 1217,-358 1978,-358 1978,-146 1217,-146"/>
</g>
<g id="clust9" class="cluster">
<title>cluster_AppModule_imports</title>
<polygon fill="none" stroke="black" points="1363,-154 1363,-282 1970,-282 1970,-154 1363,-154"/>
</g>
<g id="clust12" class="cluster">
<title>cluster_AppModule_providers</title>
<polygon fill="none" stroke="black" points="1225,-230 1225,-282 1355,-282 1355,-230 1225,-230"/>
</g>
<g id="clust13" class="cluster">
<title>cluster_AuthenticationModule</title>
<polygon fill="none" stroke="black" stroke-dasharray="1,5" points="534,-146 534,-214 1209,-214 1209,-146 534,-146"/>
</g>
<g id="clust16" class="cluster">
<title>cluster_AuthenticationModule_exports</title>
<polygon fill="none" stroke="black" points="1041,-154 1041,-206 1201,-206 1201,-154 1041,-154"/>
</g>
<g id="clust18" class="cluster">
<title>cluster_AuthenticationModule_providers</title>
<polygon fill="none" stroke="black" points="542,-154 542,-206 1033,-206 1033,-154 542,-154"/>
</g>
<g id="clust19" class="cluster">
<title>cluster_ChessModule</title>
<polygon fill="none" stroke="black" stroke-dasharray="1,5" points="1986,-222 1986,-290 2262,-290 2262,-222 1986,-222"/>
</g>
<g id="clust22" class="cluster">
<title>cluster_ChessModule_exports</title>
<polygon fill="none" stroke="black" points="2144,-230 2144,-282 2254,-282 2254,-230 2144,-230"/>
</g>
<g id="clust24" class="cluster">
<title>cluster_ChessModule_providers</title>
<polygon fill="none" stroke="black" points="1994,-230 1994,-282 2136,-282 2136,-230 1994,-230"/>
</g>
<g id="clust31" class="cluster">
<title>cluster_ElitedbModule</title>
<polygon fill="none" stroke="black" stroke-dasharray="1,5" points="1696,-70 1696,-138 1864,-138 1864,-70 1696,-70"/>
</g>
<g id="clust36" class="cluster">
<title>cluster_ElitedbModule_providers</title>
<polygon fill="none" stroke="black" points="1704,-78 1704,-130 1856,-130 1856,-78 1704,-78"/>
</g>
<g id="clust37" class="cluster">
<title>cluster_InfoResultsModule</title>
<polygon fill="none" stroke="black" stroke-dasharray="1,5" points="2270,-222 2270,-290 2428,-290 2428,-222 2270,-222"/>
</g>
<g id="clust40" class="cluster">
<title>cluster_InfoResultsModule_exports</title>
<polygon fill="none" stroke="black" points="2278,-230 2278,-282 2420,-282 2420,-230 2278,-230"/>
</g>
<g id="clust43" class="cluster">
<title>cluster_MovesModule</title>
<polygon fill="none" stroke="black" stroke-dasharray="1,5" points="1986,-298 1986,-366 2118,-366 2118,-298 1986,-298"/>
</g>
<g id="clust46" class="cluster">
<title>cluster_MovesModule_exports</title>
<polygon fill="none" stroke="black" points="1994,-306 1994,-358 2110,-358 2110,-306 1994,-306"/>
</g>
<g id="clust49" class="cluster">
<title>cluster_UsersModule</title>
<polygon fill="none" stroke="black" stroke-dasharray="1,5" points="1218,-70 1218,-138 1688,-138 1688,-70 1218,-70"/>
</g>
<g id="clust52" class="cluster">
<title>cluster_UsersModule_exports</title>
<polygon fill="none" stroke="black" points="1570,-78 1570,-130 1680,-130 1680,-78 1570,-78"/>
</g>
<g id="clust54" class="cluster">
<title>cluster_UsersModule_providers</title>
<polygon fill="none" stroke="black" points="1226,-78 1226,-130 1562,-130 1562,-78 1226,-78"/>
</g>
<!-- AnalysisService -->
<g id="node1" class="node">
<title>AnalysisService</title>
<ellipse fill="#fdb462" stroke="black" cx="98" cy="-104" rx="73.57" ry="18"/>
<text text-anchor="middle" x="98" y="-99.8" font-family="Times,serif" font-size="14.00">AnalysisService</text>
</g>
<!-- AnalysisModule -->
<g id="node4" class="node">
<title>AnalysisModule</title>
<polygon fill="#8dd3c7" stroke="black" points="354.04,-198 351.04,-202 330.04,-202 327.04,-198 245.96,-198 245.96,-162 354.04,-162 354.04,-198"/>
<text text-anchor="middle" x="300" y="-175.8" font-family="Times,serif" font-size="14.00">AnalysisModule</text>
</g>
<!-- AnalysisService&#45;&gt;AnalysisModule -->
<g id="edge1" class="edge">
<title>AnalysisService&#45;&gt;AnalysisModule</title>
<path fill="none" stroke="black" d="M98,-122.01C98,-144.49 98,-180 98,-180 98,-180 235.87,-180 235.87,-180"/>
<polygon fill="black" stroke="black" points="235.87,-183.5 245.87,-180 235.87,-176.5 235.87,-183.5"/>
</g>
<!-- InfoResultsService -->
<g id="node2" class="node">
<title>InfoResultsService</title>
<ellipse fill="#fdb462" stroke="black" cx="425" cy="-104" rx="84.52" ry="18"/>
<text text-anchor="middle" x="425" y="-99.8" font-family="Times,serif" font-size="14.00">InfoResultsService</text>
</g>
<!-- InfoResultsService&#45;&gt;AnalysisModule -->
<g id="edge2" class="edge">
<title>InfoResultsService&#45;&gt;AnalysisModule</title>
<path fill="none" stroke="black" d="M347.38,-111.29C347.38,-111.29 347.38,-151.73 347.38,-151.73"/>
<polygon fill="black" stroke="black" points="343.88,-151.73 347.38,-161.73 350.88,-151.73 343.88,-151.73"/>
</g>
<!-- InfoResultsModule -->
<g id="node9" class="node">
<title>InfoResultsModule</title>
<polygon fill="#8dd3c7" stroke="black" points="1495.09,-198 1492.09,-202 1471.09,-202 1468.09,-198 1370.91,-198 1370.91,-162 1495.09,-162 1495.09,-198"/>
<text text-anchor="middle" x="1433" y="-175.8" font-family="Times,serif" font-size="14.00">InfoResultsModule</text>
</g>
<!-- InfoResultsService&#45;&gt;InfoResultsModule -->
<g id="edge22" class="edge">
<title>InfoResultsService&#45;&gt;InfoResultsModule</title>
<path fill="none" stroke="black" d="M509.74,-104C713.36,-104 1213.36,-104 1213.36,-104 1213.36,-104 1213.36,-180 1213.36,-180 1213.36,-180 1360.94,-180 1360.94,-180"/>
<polygon fill="black" stroke="black" points="1360.94,-183.5 1370.94,-180 1360.94,-176.5 1360.94,-183.5"/>
</g>
<!-- MovesService -->
<g id="node3" class="node">
<title>MovesService</title>
<ellipse fill="#fdb462" stroke="black" cx="256" cy="-104" rx="66.05" ry="18"/>
<text text-anchor="middle" x="256" y="-99.8" font-family="Times,serif" font-size="14.00">MovesService</text>
</g>
<!-- MovesService&#45;&gt;AnalysisModule -->
<g id="edge3" class="edge">
<title>MovesService&#45;&gt;AnalysisModule</title>
<path fill="none" stroke="black" d="M284,-120.49C284,-120.49 284,-151.95 284,-151.95"/>
<polygon fill="black" stroke="black" points="280.5,-151.95 284,-161.95 287.5,-151.95 280.5,-151.95"/>
</g>
<!-- MovesModule -->
<g id="node10" class="node">
<title>MovesModule</title>
<polygon fill="#8dd3c7" stroke="black" points="1468.65,-274 1465.65,-278 1444.65,-278 1441.65,-274 1371.35,-274 1371.35,-238 1468.65,-238 1468.65,-274"/>
<text text-anchor="middle" x="1420" y="-251.8" font-family="Times,serif" font-size="14.00">MovesModule</text>
</g>
<!-- MovesService&#45;&gt;MovesModule -->
<g id="edge25" class="edge">
<title>MovesService&#45;&gt;MovesModule</title>
<path fill="none" stroke="black" d="M217.73,-118.71C217.73,-151.56 217.73,-228 217.73,-228 217.73,-228 1403.72,-228 1403.72,-228 1403.72,-228 1403.72,-228.98 1403.72,-228.98"/>
<polygon fill="black" stroke="black" points="1400.22,-227.79 1403.72,-237.79 1407.22,-227.79 1400.22,-227.79"/>
</g>
<!-- AppModule -->
<g id="node12" class="node">
<title>AppModule</title>
<polygon fill="#8dd3c7" stroke="black" points="1689.66,-350 1686.66,-354 1665.66,-354 1662.66,-350 1606.34,-350 1606.34,-314 1689.66,-314 1689.66,-350"/>
<text text-anchor="middle" x="1648" y="-327.8" font-family="Times,serif" font-size="14.00">AppModule</text>
</g>
<!-- AnalysisModule&#45;&gt;AppModule -->
<g id="edge4" class="edge">
<title>AnalysisModule&#45;&gt;AppModule</title>
<path fill="none" stroke="black" d="M300,-198.07C300,-240.51 300,-343 300,-343 300,-343 1596.18,-343 1596.18,-343"/>
<polygon fill="black" stroke="black" points="1596.18,-346.5 1606.18,-343 1596.18,-339.5 1596.18,-346.5"/>
</g>
<!-- AuthenticationModule -->
<g id="node5" class="node">
<title>AuthenticationModule</title>
<polygon fill="#8dd3c7" stroke="black" points="1629.25,-274 1626.25,-278 1605.25,-278 1602.25,-274 1486.75,-274 1486.75,-238 1629.25,-238 1629.25,-274"/>
<text text-anchor="middle" x="1558" y="-251.8" font-family="Times,serif" font-size="14.00">AuthenticationModule</text>
</g>
<!-- AuthenticationModule&#45;&gt;AppModule -->
<g id="edge5" class="edge">
<title>AuthenticationModule&#45;&gt;AppModule</title>
<path fill="none" stroke="black" d="M1617.77,-274.01C1617.77,-274.01 1617.77,-303.85 1617.77,-303.85"/>
<polygon fill="black" stroke="black" points="1614.27,-303.85 1617.77,-313.85 1621.27,-303.85 1614.27,-303.85"/>
</g>
<!-- AuthenticationService  -->
<g id="node14" class="node">
<title>AuthenticationService </title>
<polygon fill="#fb8072" stroke="black" points="1193.18,-198 1048.82,-198 1048.82,-162 1193.18,-162 1193.18,-198"/>
<text text-anchor="middle" x="1121" y="-175.8" font-family="Times,serif" font-size="14.00">AuthenticationService </text>
</g>
<!-- AuthenticationModule&#45;&gt;AuthenticationService  -->
<g id="edge14" class="edge">
<title>AuthenticationModule&#45;&gt;AuthenticationService </title>
<path fill="none" stroke="black" stroke-dasharray="5,2" d="M1492.94,-237.51C1492.94,-225.86 1492.94,-213 1492.94,-213 1492.94,-213 1121,-213 1121,-213 1121,-213 1121,-208.04 1121,-208.04"/>
<polygon fill="black" stroke="black" points="1124.5,-208.04 1121,-198.04 1117.5,-208.04 1124.5,-208.04"/>
</g>
<!-- ChessModule -->
<g id="node6" class="node">
<title>ChessModule</title>
<polygon fill="#8dd3c7" stroke="black" points="1962.49,-198 1959.49,-202 1938.49,-202 1935.49,-198 1869.51,-198 1869.51,-162 1962.49,-162 1962.49,-198"/>
<text text-anchor="middle" x="1916" y="-175.8" font-family="Times,serif" font-size="14.00">ChessModule</text>
</g>
<!-- ChessModule&#45;&gt;AppModule -->
<g id="edge6" class="edge">
<title>ChessModule&#45;&gt;AppModule</title>
<path fill="none" stroke="black" d="M1900.5,-198.12C1900.5,-239.63 1900.5,-338 1900.5,-338 1900.5,-338 1699.7,-338 1699.7,-338"/>
<polygon fill="black" stroke="black" points="1699.7,-334.5 1689.7,-338 1699.7,-341.5 1699.7,-334.5"/>
</g>
<!-- ChessService  -->
<g id="node18" class="node">
<title>ChessService </title>
<polygon fill="#fb8072" stroke="black" points="2246.42,-274 2151.58,-274 2151.58,-238 2246.42,-238 2246.42,-274"/>
<text text-anchor="middle" x="2199" y="-251.8" font-family="Times,serif" font-size="14.00">ChessService </text>
</g>
<!-- ChessModule&#45;&gt;ChessService  -->
<g id="edge18" class="edge">
<title>ChessModule&#45;&gt;ChessService </title>
<path fill="none" stroke="black" stroke-dasharray="5,2" d="M1962.73,-180C2043.11,-180 2199,-180 2199,-180 2199,-180 2199,-227.99 2199,-227.99"/>
<polygon fill="black" stroke="black" points="2195.5,-227.99 2199,-237.99 2202.5,-227.99 2195.5,-227.99"/>
</g>
<!-- DatabaseModule -->
<g id="node7" class="node">
<title>DatabaseModule</title>
<polygon fill="#8dd3c7" stroke="black" points="1851.35,-198 1848.35,-202 1827.35,-202 1824.35,-198 1740.65,-198 1740.65,-162 1851.35,-162 1851.35,-198"/>
<text text-anchor="middle" x="1796" y="-175.8" font-family="Times,serif" font-size="14.00">DatabaseModule</text>
</g>
<!-- DatabaseModule&#45;&gt;AppModule -->
<g id="edge7" class="edge">
<title>DatabaseModule&#45;&gt;AppModule</title>
<path fill="none" stroke="black" d="M1796,-198.2C1796,-237.33 1796,-326 1796,-326 1796,-326 1700.01,-326 1700.01,-326"/>
<polygon fill="black" stroke="black" points="1700.02,-322.5 1690.01,-326 1700.01,-329.5 1700.02,-322.5"/>
</g>
<!-- ElitedbModule -->
<g id="node8" class="node">
<title>ElitedbModule</title>
<polygon fill="#8dd3c7" stroke="black" points="1722.99,-198 1719.99,-202 1698.99,-202 1695.99,-198 1623.01,-198 1623.01,-162 1722.99,-162 1722.99,-198"/>
<text text-anchor="middle" x="1673" y="-175.8" font-family="Times,serif" font-size="14.00">ElitedbModule</text>
</g>
<!-- ElitedbModule&#45;&gt;AppModule -->
<g id="edge8" class="edge">
<title>ElitedbModule&#45;&gt;AppModule</title>
<path fill="none" stroke="black" d="M1669.68,-198.03C1669.68,-198.03 1669.68,-303.99 1669.68,-303.99"/>
<polygon fill="black" stroke="black" points="1666.18,-303.99 1669.68,-313.99 1673.18,-303.99 1666.18,-303.99"/>
</g>
<!-- InfoResultsModule&#45;&gt;MovesModule -->
<g id="edge23" class="edge">
<title>InfoResultsModule&#45;&gt;MovesModule</title>
<path fill="none" stroke="black" d="M1436.28,-198.01C1436.28,-198.01 1436.28,-227.85 1436.28,-227.85"/>
<polygon fill="black" stroke="black" points="1432.78,-227.85 1436.28,-237.85 1439.78,-227.85 1432.78,-227.85"/>
</g>
<!-- InfoResultsModule&#45;&gt;AppModule -->
<g id="edge9" class="edge">
<title>InfoResultsModule&#45;&gt;AppModule</title>
<path fill="none" stroke="black" d="M1480.69,-198.27C1480.69,-236.63 1480.69,-322 1480.69,-322 1480.69,-322 1596.21,-322 1596.21,-322"/>
<polygon fill="black" stroke="black" points="1596.21,-325.5 1606.21,-322 1596.21,-318.5 1596.21,-325.5"/>
</g>
<!-- InfoResultsService  -->
<g id="node21" class="node">
<title>InfoResultsService </title>
<polygon fill="#fb8072" stroke="black" points="2412.02,-274 2285.98,-274 2285.98,-238 2412.02,-238 2412.02,-274"/>
<text text-anchor="middle" x="2349" y="-251.8" font-family="Times,serif" font-size="14.00">InfoResultsService </text>
</g>
<!-- InfoResultsModule&#45;&gt;InfoResultsService  -->
<g id="edge21" class="edge">
<title>InfoResultsModule&#45;&gt;InfoResultsService </title>
<path fill="none" stroke="black" stroke-dasharray="5,2" d="M1474.76,-198.12C1474.76,-200.97 1474.76,-203 1474.76,-203 1474.76,-203 2349,-203 2349,-203 2349,-203 2349,-227.76 2349,-227.76"/>
<polygon fill="black" stroke="black" points="2345.5,-227.76 2349,-237.76 2352.5,-227.76 2345.5,-227.76"/>
</g>
<!-- MovesModule&#45;&gt;AppModule -->
<g id="edge10" class="edge">
<title>MovesModule&#45;&gt;AppModule</title>
<path fill="none" stroke="black" d="M1436.28,-274.04C1436.28,-295.66 1436.28,-329 1436.28,-329 1436.28,-329 1596.17,-329 1596.17,-329"/>
<polygon fill="black" stroke="black" points="1596.17,-332.5 1606.17,-329 1596.17,-325.5 1596.17,-332.5"/>
</g>
<!-- MovesService  -->
<g id="node22" class="node">
<title>MovesService </title>
<polygon fill="#fb8072" stroke="black" points="2101.58,-350 2002.42,-350 2002.42,-314 2101.58,-314 2101.58,-350"/>
<text text-anchor="middle" x="2052" y="-327.8" font-family="Times,serif" font-size="14.00">MovesService </text>
</g>
<!-- MovesModule&#45;&gt;MovesService  -->
<g id="edge24" class="edge">
<title>MovesModule&#45;&gt;MovesService </title>
<path fill="none" stroke="black" stroke-dasharray="5,2" d="M1403.72,-274.11C1403.72,-283.9 1403.72,-294 1403.72,-294 1403.72,-294 2052,-294 2052,-294 2052,-294 2052,-303.89 2052,-303.89"/>
<polygon fill="black" stroke="black" points="2048.5,-303.89 2052,-313.89 2055.5,-303.89 2048.5,-303.89"/>
</g>
<!-- UsersModule -->
<g id="node11" class="node">
<title>UsersModule</title>
<polygon fill="#8dd3c7" stroke="black" points="1604.92,-198 1601.92,-202 1580.92,-202 1577.92,-198 1513.08,-198 1513.08,-162 1604.92,-162 1604.92,-198"/>
<text text-anchor="middle" x="1559" y="-175.8" font-family="Times,serif" font-size="14.00">UsersModule</text>
</g>
<!-- UsersModule&#45;&gt;AuthenticationModule -->
<g id="edge13" class="edge">
<title>UsersModule&#45;&gt;AuthenticationModule</title>
<path fill="none" stroke="black" d="M1543.76,-198.01C1543.76,-198.01 1543.76,-227.85 1543.76,-227.85"/>
<polygon fill="black" stroke="black" points="1540.26,-227.85 1543.76,-237.85 1547.26,-227.85 1540.26,-227.85"/>
</g>
<!-- UsersModule&#45;&gt;AppModule -->
<g id="edge11" class="edge">
<title>UsersModule&#45;&gt;AppModule</title>
<path fill="none" stroke="black" d="M1574.24,-198.24C1574.24,-213.57 1574.24,-233 1574.24,-233 1574.24,-233 1649.53,-233 1649.53,-233 1649.53,-233 1649.53,-303.84 1649.53,-303.84"/>
<polygon fill="black" stroke="black" points="1646.03,-303.84 1649.53,-313.84 1653.03,-303.84 1646.03,-303.84"/>
</g>
<!-- UsersService  -->
<g id="node23" class="node">
<title>UsersService </title>
<polygon fill="#fb8072" stroke="black" points="1671.85,-122 1578.15,-122 1578.15,-86 1671.85,-86 1671.85,-122"/>
<text text-anchor="middle" x="1625" y="-99.8" font-family="Times,serif" font-size="14.00">UsersService </text>
</g>
<!-- UsersModule&#45;&gt;UsersService  -->
<g id="edge26" class="edge">
<title>UsersModule&#45;&gt;UsersService </title>
<path fill="none" stroke="black" stroke-dasharray="5,2" d="M1591.52,-161.99C1591.52,-161.99 1591.52,-132.15 1591.52,-132.15"/>
<polygon fill="black" stroke="black" points="1595.02,-132.15 1591.52,-122.15 1588.02,-132.15 1595.02,-132.15"/>
</g>
<!-- AppService -->
<g id="node13" class="node">
<title>AppService</title>
<ellipse fill="#fdb462" stroke="black" cx="1290" cy="-256" rx="56.74" ry="18"/>
<text text-anchor="middle" x="1290" y="-251.8" font-family="Times,serif" font-size="14.00">AppService</text>
</g>
<!-- AppService&#45;&gt;AppModule -->
<g id="edge12" class="edge">
<title>AppService&#45;&gt;AppModule</title>
<path fill="none" stroke="black" d="M1290,-274.15C1290,-297.76 1290,-336 1290,-336 1290,-336 1596.23,-336 1596.23,-336"/>
<polygon fill="black" stroke="black" points="1596.23,-339.5 1606.23,-336 1596.23,-332.5 1596.23,-339.5"/>
</g>
<!-- AuthenticationService -->
<g id="node15" class="node">
<title>AuthenticationService</title>
<ellipse fill="#fdb462" stroke="black" cx="647" cy="-180" rx="97.27" ry="18"/>
<text text-anchor="middle" x="647" y="-175.8" font-family="Times,serif" font-size="14.00">AuthenticationService</text>
</g>
<!-- AuthenticationService&#45;&gt;AuthenticationModule -->
<g id="edge15" class="edge">
<title>AuthenticationService&#45;&gt;AuthenticationModule</title>
<path fill="none" stroke="black" d="M647,-198.21C647,-203.55 647,-208 647,-208 647,-208 1504.17,-208 1504.17,-208 1504.17,-208 1504.17,-227.85 1504.17,-227.85"/>
<polygon fill="black" stroke="black" points="1500.67,-227.85 1504.17,-237.85 1507.67,-227.85 1500.67,-227.85"/>
</g>
<!-- JwtStrategy -->
<g id="node16" class="node">
<title>JwtStrategy</title>
<ellipse fill="#fdb462" stroke="black" cx="968" cy="-180" rx="56.76" ry="18"/>
<text text-anchor="middle" x="968" y="-175.8" font-family="Times,serif" font-size="14.00">JwtStrategy</text>
</g>
<!-- JwtStrategy&#45;&gt;AuthenticationModule -->
<g id="edge16" class="edge">
<title>JwtStrategy&#45;&gt;AuthenticationModule</title>
<path fill="none" stroke="black" d="M968,-198.11C968,-207.9 968,-218 968,-218 968,-218 1490.83,-218 1490.83,-218 1490.83,-218 1490.83,-227.89 1490.83,-227.89"/>
<polygon fill="black" stroke="black" points="1487.33,-227.89 1490.83,-237.89 1494.33,-227.89 1487.33,-227.89"/>
</g>
<!-- LocalStrategy -->
<g id="node17" class="node">
<title>LocalStrategy</title>
<ellipse fill="#fdb462" stroke="black" cx="828" cy="-180" rx="65.41" ry="18"/>
<text text-anchor="middle" x="828" y="-175.8" font-family="Times,serif" font-size="14.00">LocalStrategy</text>
</g>
<!-- LocalStrategy&#45;&gt;AuthenticationModule -->
<g id="edge17" class="edge">
<title>LocalStrategy&#45;&gt;AuthenticationModule</title>
<path fill="none" stroke="black" d="M828,-198.49C828,-210.14 828,-223 828,-223 828,-223 1488.73,-223 1488.73,-223 1488.73,-223 1488.73,-227.96 1488.73,-227.96"/>
<polygon fill="black" stroke="black" points="1485.23,-227.96 1488.73,-237.96 1492.23,-227.96 1485.23,-227.96"/>
</g>
<!-- ChessService -->
<g id="node19" class="node">
<title>ChessService</title>
<ellipse fill="#fdb462" stroke="black" cx="2065" cy="-256" rx="63.12" ry="18"/>
<text text-anchor="middle" x="2065" y="-251.8" font-family="Times,serif" font-size="14.00">ChessService</text>
</g>
<!-- ChessService&#45;&gt;ChessModule -->
<g id="edge19" class="edge">
<title>ChessService&#45;&gt;ChessModule</title>
<path fill="none" stroke="black" d="M2001.77,-256C1967.26,-256 1931.5,-256 1931.5,-256 1931.5,-256 1931.5,-208.01 1931.5,-208.01"/>
<polygon fill="black" stroke="black" points="1935,-208.01 1931.5,-198.01 1928,-208.01 1935,-208.01"/>
</g>
<!-- ElitedbService -->
<g id="node20" class="node">
<title>ElitedbService</title>
<ellipse fill="#fdb462" stroke="black" cx="1780" cy="-104" rx="67.77" ry="18"/>
<text text-anchor="middle" x="1780" y="-99.8" font-family="Times,serif" font-size="14.00">ElitedbService</text>
</g>
<!-- ElitedbService&#45;&gt;ElitedbModule -->
<g id="edge20" class="edge">
<title>ElitedbService&#45;&gt;ElitedbModule</title>
<path fill="none" stroke="black" d="M1717.55,-111.29C1717.55,-111.29 1717.55,-151.73 1717.55,-151.73"/>
<polygon fill="black" stroke="black" points="1714.05,-151.73 1717.55,-161.73 1721.05,-151.73 1714.05,-151.73"/>
</g>
<!-- UserSettingsService -->
<g id="node24" class="node">
<title>UserSettingsService</title>
<ellipse fill="#fdb462" stroke="black" cx="1323" cy="-104" rx="89.18" ry="18"/>
<text text-anchor="middle" x="1323" y="-99.8" font-family="Times,serif" font-size="14.00">UserSettingsService</text>
</g>
<!-- UserSettingsService&#45;&gt;UsersModule -->
<g id="edge27" class="edge">
<title>UserSettingsService&#45;&gt;UsersModule</title>
<path fill="none" stroke="black" d="M1391.65,-115.61C1391.65,-126.78 1391.65,-142 1391.65,-142 1391.65,-142 1526.85,-142 1526.85,-142 1526.85,-142 1526.85,-151.89 1526.85,-151.89"/>
<polygon fill="black" stroke="black" points="1523.35,-151.89 1526.85,-161.89 1530.35,-151.89 1523.35,-151.89"/>
</g>
<!-- UsersService -->
<g id="node25" class="node">
<title>UsersService</title>
<ellipse fill="#fdb462" stroke="black" cx="1492" cy="-104" rx="61.95" ry="18"/>
<text text-anchor="middle" x="1492" y="-99.8" font-family="Times,serif" font-size="14.00">UsersService</text>
</g>
<!-- UsersService&#45;&gt;UsersModule -->
<g id="edge28" class="edge">
<title>UsersService&#45;&gt;UsersModule</title>
<path fill="none" stroke="black" d="M1540.41,-115.54C1540.41,-115.54 1540.41,-151.83 1540.41,-151.83"/>
<polygon fill="black" stroke="black" points="1536.91,-151.83 1540.41,-161.83 1543.91,-151.83 1536.91,-151.83"/>
</g>
</g>
</svg>
