<?xml version="1.0" encoding="UTF-8" standalone="no"?>
<!DOCTYPE svg PUBLIC "-//W3C//DTD SVG 1.1//EN"
 "http://www.w3.org/Graphics/SVG/1.1/DTD/svg11.dtd">
<!-- Generated by graphviz version 2.47.0 (20210316.0004)
 -->
<!-- Title: dependencies Pages: 1 -->
<svg width="2215pt" height="382pt"
 viewBox="0.00 0.00 2215.00 382.00" xmlns="http://www.w3.org/2000/svg" xmlns:xlink="http://www.w3.org/1999/xlink">
<g id="graph0" class="graph" transform="scale(1 1) rotate(0) translate(4 378)">
<title>dependencies</title>
<polygon fill="white" stroke="transparent" points="-4,4 -4,-378 2211,-378 2211,4 -4,4"/>
<text text-anchor="start" x="1082.51" y="-42.4" font-family="Times-12" font-weight="bold" font-size="14.00">Legend</text>
<polygon fill="#ffffb3" stroke="transparent" points="869.5,-10 869.5,-30 889.5,-30 889.5,-10 869.5,-10"/>
<text text-anchor="start" x="893.13" y="-15.4" font-family="Times-12" font-size="14.00"> &#160;Declarations</text>
<polygon fill="#8dd3c7" stroke="transparent" points="982.5,-10 982.5,-30 1002.5,-30 1002.5,-10 982.5,-10"/>
<text text-anchor="start" x="1006.23" y="-15.4" font-family="Times-12" font-size="14.00"> &#160;Module</text>
<polygon fill="#80b1d3" stroke="transparent" points="1068.5,-10 1068.5,-30 1088.5,-30 1088.5,-10 1068.5,-10"/>
<text text-anchor="start" x="1092.28" y="-15.4" font-family="Times-12" font-size="14.00"> &#160;Bootstrap</text>
<polygon fill="#fdb462" stroke="transparent" points="1165.5,-10 1165.5,-30 1185.5,-30 1185.5,-10 1165.5,-10"/>
<text text-anchor="start" x="1189.17" y="-15.4" font-family="Times-12" font-size="14.00"> &#160;Providers</text>
<polygon fill="#fb8072" stroke="transparent" points="1261.5,-10 1261.5,-30 1281.5,-30 1281.5,-10 1261.5,-10"/>
<text text-anchor="start" x="1285.23" y="-15.4" font-family="Times-12" font-size="14.00"> &#160;Exports</text>
<g id="clust19" class="cluster">
<title>cluster_ChessModule</title>
<polygon fill="none" stroke="black" stroke-dasharray="1,5" points="2041,-146 2041,-366 2199,-366 2199,-146 2041,-146"/>
</g>
<g id="clust22" class="cluster">
<title>cluster_ChessModule_exports</title>
<polygon fill="none" stroke="black" points="2057,-306 2057,-358 2167,-358 2167,-306 2057,-306"/>
</g>
<g id="clust24" class="cluster">
<title>cluster_ChessModule_providers</title>
<polygon fill="none" stroke="black" points="2049,-154 2049,-206 2191,-206 2191,-154 2049,-154"/>
</g>
<g id="clust1" class="cluster">
<title>cluster_AnalysisModule</title>
<polygon fill="none" stroke="black" stroke-dasharray="1,5" points="1515,-70 1515,-206 2033,-206 2033,-70 1515,-70"/>
</g>
<g id="clust6" class="cluster">
<title>cluster_AnalysisModule_providers</title>
<polygon fill="none" stroke="black" points="1523,-78 1523,-130 2025,-130 2025,-78 1523,-78"/>
</g>
<g id="clust7" class="cluster">
<title>cluster_AppModule</title>
<polygon fill="none" stroke="black" stroke-dasharray="1,5" points="174,-146 174,-358 824,-358 824,-146 174,-146"/>
</g>
<g id="clust12" class="cluster">
<title>cluster_AppModule_providers</title>
<polygon fill="none" stroke="black" points="686,-230 686,-282 816,-282 816,-230 686,-230"/>
</g>
<g id="clust9" class="cluster">
<title>cluster_AppModule_imports</title>
<polygon fill="none" stroke="black" points="182,-154 182,-282 678,-282 678,-154 182,-154"/>
</g>
<g id="clust31" class="cluster">
<title>cluster_ElitedbModule</title>
<polygon fill="none" stroke="black" stroke-dasharray="1,5" points="528,-70 528,-138 696,-138 696,-70 528,-70"/>
</g>
<g id="clust36" class="cluster">
<title>cluster_ElitedbModule_providers</title>
<polygon fill="none" stroke="black" points="536,-78 536,-130 688,-130 688,-78 536,-78"/>
</g>
<g id="clust37" class="cluster">
<title>cluster_InfoResultsModule</title>
<polygon fill="none" stroke="black" stroke-dasharray="1,5" points="8,-222 8,-290 166,-290 166,-222 8,-222"/>
</g>
<g id="clust40" class="cluster">
<title>cluster_InfoResultsModule_exports</title>
<polygon fill="none" stroke="black" points="16,-230 16,-282 158,-282 158,-230 16,-230"/>
</g>
<g id="clust13" class="cluster">
<title>cluster_AuthenticationModule</title>
<polygon fill="none" stroke="black" stroke-dasharray="1,5" points="832,-146 832,-214 1507,-214 1507,-146 832,-146"/>
</g>
<g id="clust16" class="cluster">
<title>cluster_AuthenticationModule_exports</title>
<polygon fill="none" stroke="black" points="1339,-154 1339,-206 1499,-206 1499,-154 1339,-154"/>
</g>
<g id="clust18" class="cluster">
<title>cluster_AuthenticationModule_providers</title>
<polygon fill="none" stroke="black" points="840,-154 840,-206 1331,-206 1331,-154 840,-154"/>
</g>
<g id="clust43" class="cluster">
<title>cluster_MovesModule</title>
<polygon fill="none" stroke="black" stroke-dasharray="1,5" points="34,-298 34,-366 166,-366 166,-298 34,-298"/>
</g>
<g id="clust46" class="cluster">
<title>cluster_MovesModule_exports</title>
<polygon fill="none" stroke="black" points="42,-306 42,-358 158,-358 158,-306 42,-306"/>
</g>
<g id="clust49" class="cluster">
<title>cluster_UsersModule</title>
<polygon fill="none" stroke="black" stroke-dasharray="1,5" points="50,-70 50,-138 520,-138 520,-70 50,-70"/>
</g>
<g id="clust52" class="cluster">
<title>cluster_UsersModule_exports</title>
<polygon fill="none" stroke="black" points="402,-78 402,-130 512,-130 512,-78 402,-78"/>
</g>
<g id="clust54" class="cluster">
<title>cluster_UsersModule_providers</title>
<polygon fill="none" stroke="black" points="58,-78 58,-130 394,-130 394,-78 58,-78"/>
</g>
<!-- AnalysisService -->
<g id="node1" class="node">
<title>AnalysisService</title>
<ellipse fill="#fdb462" stroke="black" cx="1943" cy="-104" rx="73.57" ry="18"/>
<text text-anchor="middle" x="1943" y="-99.8" font-family="Times,serif" font-size="14.00">AnalysisService</text>
</g>
<!-- AnalysisModule -->
<g id="node4" class="node">
<title>AnalysisModule</title>
<polygon fill="#8dd3c7" stroke="black" points="1754.04,-198 1751.04,-202 1730.04,-202 1727.04,-198 1645.96,-198 1645.96,-162 1754.04,-162 1754.04,-198"/>
<text text-anchor="middle" x="1700" y="-175.8" font-family="Times,serif" font-size="14.00">AnalysisModule</text>
</g>
<!-- AnalysisService&#45;&gt;AnalysisModule -->
<g id="edge1" class="edge">
<title>AnalysisService&#45;&gt;AnalysisModule</title>
<path fill="none" stroke="black" d="M1943,-122.01C1943,-144.49 1943,-180 1943,-180 1943,-180 1764.23,-180 1764.23,-180"/>
<polygon fill="black" stroke="black" points="1764.23,-176.5 1754.23,-180 1764.23,-183.5 1764.23,-176.5"/>
</g>
<!-- InfoResultsService -->
<g id="node2" class="node">
<title>InfoResultsService</title>
<ellipse fill="#fdb462" stroke="black" cx="1616" cy="-104" rx="84.52" ry="18"/>
<text text-anchor="middle" x="1616" y="-99.8" font-family="Times,serif" font-size="14.00">InfoResultsService</text>
</g>
<!-- InfoResultsService&#45;&gt;AnalysisModule -->
<g id="edge2" class="edge">
<title>InfoResultsService&#45;&gt;AnalysisModule</title>
<path fill="none" stroke="black" d="M1673.12,-117.59C1673.12,-117.59 1673.12,-151.96 1673.12,-151.96"/>
<polygon fill="black" stroke="black" points="1669.62,-151.96 1673.12,-161.96 1676.62,-151.96 1669.62,-151.96"/>
</g>
<!-- InfoResultsModule -->
<g id="node9" class="node">
<title>InfoResultsModule</title>
<polygon fill="#8dd3c7" stroke="black" points="670.09,-198 667.09,-202 646.09,-202 643.09,-198 545.91,-198 545.91,-162 670.09,-162 670.09,-198"/>
<text text-anchor="middle" x="608" y="-175.8" font-family="Times,serif" font-size="14.00">InfoResultsModule</text>
</g>
<!-- InfoResultsService&#45;&gt;InfoResultsModule -->
<g id="edge22" class="edge">
<title>InfoResultsService&#45;&gt;InfoResultsModule</title>
<path fill="none" stroke="black" d="M1531.26,-104C1327.63,-104 827.62,-104 827.62,-104 827.62,-104 827.62,-171 827.62,-171 827.62,-171 680.05,-171 680.05,-171"/>
<polygon fill="black" stroke="black" points="680.05,-167.5 670.05,-171 680.05,-174.5 680.05,-167.5"/>
</g>
<!-- MovesService -->
<g id="node3" class="node">
<title>MovesService</title>
<ellipse fill="#fdb462" stroke="black" cx="1785" cy="-104" rx="66.05" ry="18"/>
<text text-anchor="middle" x="1785" y="-99.8" font-family="Times,serif" font-size="14.00">MovesService</text>
</g>
<!-- MovesService&#45;&gt;AnalysisModule -->
<g id="edge3" class="edge">
<title>MovesService&#45;&gt;AnalysisModule</title>
<path fill="none" stroke="black" d="M1742.42,-117.94C1742.42,-117.94 1742.42,-151.84 1742.42,-151.84"/>
<polygon fill="black" stroke="black" points="1738.92,-151.84 1742.42,-161.84 1745.92,-151.84 1738.92,-151.84"/>
</g>
<!-- MovesModule -->
<g id="node10" class="node">
<title>MovesModule</title>
<polygon fill="#8dd3c7" stroke="black" points="509.65,-274 506.65,-278 485.65,-278 482.65,-274 412.35,-274 412.35,-238 509.65,-238 509.65,-274"/>
<text text-anchor="middle" x="461" y="-251.8" font-family="Times,serif" font-size="14.00">MovesModule</text>
</g>
<!-- MovesService&#45;&gt;MovesModule -->
<g id="edge25" class="edge">
<title>MovesService&#45;&gt;MovesModule</title>
<path fill="none" stroke="black" d="M1730.57,-114.48C1730.57,-123.81 1730.57,-136 1730.57,-136 1730.57,-136 422.73,-136 422.73,-136 422.73,-136 422.73,-227.77 422.73,-227.77"/>
<polygon fill="black" stroke="black" points="419.23,-227.77 422.73,-237.77 426.23,-227.77 419.23,-227.77"/>
</g>
<!-- AppModule -->
<g id="node12" class="node">
<title>AppModule</title>
<polygon fill="#8dd3c7" stroke="black" points="502.66,-350 499.66,-354 478.66,-354 475.66,-350 419.34,-350 419.34,-314 502.66,-314 502.66,-350"/>
<text text-anchor="middle" x="461" y="-327.8" font-family="Times,serif" font-size="14.00">AppModule</text>
</g>
<!-- AnalysisModule&#45;&gt;AppModule -->
<g id="edge4" class="edge">
<title>AnalysisModule&#45;&gt;AppModule</title>
<path fill="none" stroke="black" d="M1700,-198.04C1700,-239.89 1700,-340 1700,-340 1700,-340 512.93,-340 512.93,-340"/>
<polygon fill="black" stroke="black" points="512.93,-336.5 502.93,-340 512.93,-343.5 512.93,-336.5"/>
</g>
<!-- AuthenticationModule -->
<g id="node5" class="node">
<title>AuthenticationModule</title>
<polygon fill="#8dd3c7" stroke="black" points="670.25,-274 667.25,-278 646.25,-278 643.25,-274 527.75,-274 527.75,-238 670.25,-238 670.25,-274"/>
<text text-anchor="middle" x="599" y="-251.8" font-family="Times,serif" font-size="14.00">AuthenticationModule</text>
</g>
<!-- AuthenticationModule&#45;&gt;AppModule -->
<g id="edge5" class="edge">
<title>AuthenticationModule&#45;&gt;AppModule</title>
<path fill="none" stroke="black" d="M599,-274.13C599,-294.57 599,-325 599,-325 599,-325 512.78,-325 512.78,-325"/>
<polygon fill="black" stroke="black" points="512.78,-321.5 502.78,-325 512.78,-328.5 512.78,-321.5"/>
</g>
<!-- AuthenticationService  -->
<g id="node14" class="node">
<title>AuthenticationService </title>
<polygon fill="#fb8072" stroke="black" points="1491.18,-198 1346.82,-198 1346.82,-162 1491.18,-162 1491.18,-198"/>
<text text-anchor="middle" x="1419" y="-175.8" font-family="Times,serif" font-size="14.00">AuthenticationService </text>
</g>
<!-- AuthenticationModule&#45;&gt;AuthenticationService  -->
<g id="edge14" class="edge">
<title>AuthenticationModule&#45;&gt;AuthenticationService </title>
<path fill="none" stroke="black" stroke-dasharray="5,2" d="M608,-237.88C608,-235.03 608,-233 608,-233 608,-233 1419,-233 1419,-233 1419,-233 1419,-208.24 1419,-208.24"/>
<polygon fill="black" stroke="black" points="1422.5,-208.24 1419,-198.24 1415.5,-208.24 1422.5,-208.24"/>
</g>
<!-- ChessModule -->
<g id="node6" class="node">
<title>ChessModule</title>
<polygon fill="#8dd3c7" stroke="black" points="2158.49,-274 2155.49,-278 2134.49,-278 2131.49,-274 2065.51,-274 2065.51,-238 2158.49,-238 2158.49,-274"/>
<text text-anchor="middle" x="2112" y="-251.8" font-family="Times,serif" font-size="14.00">ChessModule</text>
</g>
<!-- ChessModule&#45;&gt;AppModule -->
<g id="edge6" class="edge">
<title>ChessModule&#45;&gt;AppModule</title>
<path fill="none" stroke="black" d="M2065.47,-256C2062.54,-256 2060.74,-256 2060.74,-256 2060.74,-256 2060.74,-345 2060.74,-345 2060.74,-345 512.97,-345 512.97,-345"/>
<polygon fill="black" stroke="black" points="512.97,-341.5 502.97,-345 512.97,-348.5 512.97,-341.5"/>
</g>
<!-- ChessService  -->
<g id="node18" class="node">
<title>ChessService </title>
<polygon fill="#fb8072" stroke="black" points="2159.42,-350 2064.58,-350 2064.58,-314 2159.42,-314 2159.42,-350"/>
<text text-anchor="middle" x="2112" y="-327.8" font-family="Times,serif" font-size="14.00">ChessService </text>
</g>
<!-- ChessModule&#45;&gt;ChessService  -->
<g id="edge18" class="edge">
<title>ChessModule&#45;&gt;ChessService </title>
<path fill="none" stroke="black" stroke-dasharray="5,2" d="M2112,-274.01C2112,-274.01 2112,-303.85 2112,-303.85"/>
<polygon fill="black" stroke="black" points="2108.5,-303.85 2112,-313.85 2115.5,-303.85 2108.5,-303.85"/>
</g>
<!-- DatabaseModule -->
<g id="node7" class="node">
<title>DatabaseModule</title>
<polygon fill="#8dd3c7" stroke="black" points="300.35,-198 297.35,-202 276.35,-202 273.35,-198 189.65,-198 189.65,-162 300.35,-162 300.35,-198"/>
<text text-anchor="middle" x="245" y="-175.8" font-family="Times,serif" font-size="14.00">DatabaseModule</text>
</g>
<!-- DatabaseModule&#45;&gt;AppModule -->
<g id="edge7" class="edge">
<title>DatabaseModule&#45;&gt;AppModule</title>
<path fill="none" stroke="black" d="M245,-198.16C245,-240.26 245,-341 245,-341 245,-341 409.1,-341 409.1,-341"/>
<polygon fill="black" stroke="black" points="409.1,-344.5 419.1,-341 409.1,-337.5 409.1,-344.5"/>
</g>
<!-- ElitedbModule -->
<g id="node8" class="node">
<title>ElitedbModule</title>
<polygon fill="#8dd3c7" stroke="black" points="527.99,-198 524.99,-202 503.99,-202 500.99,-198 428.01,-198 428.01,-162 527.99,-162 527.99,-198"/>
<text text-anchor="middle" x="478" y="-175.8" font-family="Times,serif" font-size="14.00">ElitedbModule</text>
</g>
<!-- ElitedbModule&#45;&gt;AppModule -->
<g id="edge8" class="edge">
<title>ElitedbModule&#45;&gt;AppModule</title>
<path fill="none" stroke="black" d="M518.73,-198.02C518.73,-235.83 518.73,-320 518.73,-320 518.73,-320 512.95,-320 512.95,-320"/>
<polygon fill="black" stroke="black" points="512.95,-316.5 502.95,-320 512.95,-323.5 512.95,-316.5"/>
</g>
<!-- InfoResultsModule&#45;&gt;MovesModule -->
<g id="edge23" class="edge">
<title>InfoResultsModule&#45;&gt;MovesModule</title>
<path fill="none" stroke="black" d="M587.32,-198.42C587.32,-207.28 587.32,-216 587.32,-216 587.32,-216 468.92,-216 468.92,-216 468.92,-216 468.92,-227.87 468.92,-227.87"/>
<polygon fill="black" stroke="black" points="465.42,-227.87 468.92,-237.87 472.42,-227.87 465.42,-227.87"/>
</g>
<!-- InfoResultsModule&#45;&gt;AppModule -->
<g id="edge9" class="edge">
<title>InfoResultsModule&#45;&gt;AppModule</title>
<path fill="none" stroke="black" d="M670.13,-189C674.2,-189 676.72,-189 676.72,-189 676.72,-189 676.72,-330 676.72,-330 676.72,-330 512.85,-330 512.85,-330"/>
<polygon fill="black" stroke="black" points="512.85,-326.5 502.85,-330 512.85,-333.5 512.85,-326.5"/>
</g>
<!-- InfoResultsService  -->
<g id="node21" class="node">
<title>InfoResultsService </title>
<polygon fill="#fb8072" stroke="black" points="150.02,-274 23.98,-274 23.98,-238 150.02,-238 150.02,-274"/>
<text text-anchor="middle" x="87" y="-251.8" font-family="Times,serif" font-size="14.00">InfoResultsService </text>
</g>
<!-- InfoResultsModule&#45;&gt;InfoResultsService  -->
<g id="edge21" class="edge">
<title>InfoResultsModule&#45;&gt;InfoResultsService </title>
<path fill="none" stroke="black" stroke-dasharray="5,2" d="M566.64,-198.19C566.64,-201.54 566.64,-204 566.64,-204 566.64,-204 108.02,-204 108.02,-204 108.02,-204 108.02,-227.81 108.02,-227.81"/>
<polygon fill="black" stroke="black" points="104.52,-227.81 108.02,-237.81 111.52,-227.81 104.52,-227.81"/>
</g>
<!-- MovesModule&#45;&gt;AppModule -->
<g id="edge10" class="edge">
<title>MovesModule&#45;&gt;AppModule</title>
<path fill="none" stroke="black" d="M461,-274.01C461,-274.01 461,-303.85 461,-303.85"/>
<polygon fill="black" stroke="black" points="457.5,-303.85 461,-313.85 464.5,-303.85 457.5,-303.85"/>
</g>
<!-- MovesService  -->
<g id="node22" class="node">
<title>MovesService </title>
<polygon fill="#fb8072" stroke="black" points="149.58,-350 50.42,-350 50.42,-314 149.58,-314 149.58,-350"/>
<text text-anchor="middle" x="100" y="-327.8" font-family="Times,serif" font-size="14.00">MovesService </text>
</g>
<!-- MovesModule&#45;&gt;MovesService  -->
<g id="edge24" class="edge">
<title>MovesModule&#45;&gt;MovesService </title>
<path fill="none" stroke="black" stroke-dasharray="5,2" d="M411.96,-256C398.17,-256 386.86,-256 386.86,-256 386.86,-256 386.86,-323 386.86,-323 386.86,-323 159.64,-323 159.64,-323"/>
<polygon fill="black" stroke="black" points="159.64,-319.5 149.64,-323 159.64,-326.5 159.64,-319.5"/>
</g>
<!-- UsersModule -->
<g id="node11" class="node">
<title>UsersModule</title>
<polygon fill="#8dd3c7" stroke="black" points="409.92,-198 406.92,-202 385.92,-202 382.92,-198 318.08,-198 318.08,-162 409.92,-162 409.92,-198"/>
<text text-anchor="middle" x="364" y="-175.8" font-family="Times,serif" font-size="14.00">UsersModule</text>
</g>
<!-- UsersModule&#45;&gt;AuthenticationModule -->
<g id="edge13" class="edge">
<title>UsersModule&#45;&gt;AuthenticationModule</title>
<path fill="none" stroke="black" d="M341.14,-198.14C341.14,-204.46 341.14,-210 341.14,-210 341.14,-210 536.05,-210 536.05,-210 536.05,-210 536.05,-227.82 536.05,-227.82"/>
<polygon fill="black" stroke="black" points="532.55,-227.82 536.05,-237.82 539.55,-227.82 532.55,-227.82"/>
</g>
<!-- UsersModule&#45;&gt;AppModule -->
<g id="edge11" class="edge">
<title>UsersModule&#45;&gt;AppModule</title>
<path fill="none" stroke="black" d="M364,-198.03C364,-238.3 364,-332 364,-332 364,-332 409.3,-332 409.3,-332"/>
<polygon fill="black" stroke="black" points="409.3,-335.5 419.3,-332 409.3,-328.5 409.3,-335.5"/>
</g>
<!-- UsersService  -->
<g id="node23" class="node">
<title>UsersService </title>
<polygon fill="#fb8072" stroke="black" points="503.85,-122 410.15,-122 410.15,-86 503.85,-86 503.85,-122"/>
<text text-anchor="middle" x="457" y="-99.8" font-family="Times,serif" font-size="14.00">UsersService </text>
</g>
<!-- UsersModule&#45;&gt;UsersService  -->
<g id="edge26" class="edge">
<title>UsersModule&#45;&gt;UsersService </title>
<path fill="none" stroke="black" stroke-dasharray="5,2" d="M410.02,-180C414.51,-180 417.45,-180 417.45,-180 417.45,-180 417.45,-132.01 417.45,-132.01"/>
<polygon fill="black" stroke="black" points="420.95,-132.01 417.45,-122.01 413.95,-132.01 420.95,-132.01"/>
</g>
<!-- AppService -->
<g id="node13" class="node">
<title>AppService</title>
<ellipse fill="#fdb462" stroke="black" cx="751" cy="-256" rx="56.74" ry="18"/>
<text text-anchor="middle" x="751" y="-251.8" font-family="Times,serif" font-size="14.00">AppService</text>
</g>
<!-- AppService&#45;&gt;AppModule -->
<g id="edge12" class="edge">
<title>AppService&#45;&gt;AppModule</title>
<path fill="none" stroke="black" d="M751,-274.32C751,-297.66 751,-335 751,-335 751,-335 512.86,-335 512.86,-335"/>
<polygon fill="black" stroke="black" points="512.86,-331.5 502.86,-335 512.86,-338.5 512.86,-331.5"/>
</g>
<!-- AuthenticationService -->
<g id="node15" class="node">
<title>AuthenticationService</title>
<ellipse fill="#fdb462" stroke="black" cx="945" cy="-180" rx="97.27" ry="18"/>
<text text-anchor="middle" x="945" y="-175.8" font-family="Times,serif" font-size="14.00">AuthenticationService</text>
</g>
<!-- AuthenticationService&#45;&gt;AuthenticationModule -->
<g id="edge15" class="edge">
<title>AuthenticationService&#45;&gt;AuthenticationModule</title>
<path fill="none" stroke="black" d="M847.38,-180C769.56,-180 673.55,-180 673.55,-180 673.55,-180 673.55,-256 673.55,-256 673.55,-256 673.23,-256 673.23,-256"/>
<polygon fill="black" stroke="black" points="680.34,-252.5 670.34,-256 680.34,-259.5 680.34,-252.5"/>
</g>
<!-- JwtStrategy -->
<g id="node16" class="node">
<title>JwtStrategy</title>
<ellipse fill="#fdb462" stroke="black" cx="1266" cy="-180" rx="56.76" ry="18"/>
<text text-anchor="middle" x="1266" y="-175.8" font-family="Times,serif" font-size="14.00">JwtStrategy</text>
</g>
<!-- JwtStrategy&#45;&gt;AuthenticationModule -->
<g id="edge16" class="edge">
<title>JwtStrategy&#45;&gt;AuthenticationModule</title>
<path fill="none" stroke="black" d="M1266,-198.04C1266,-211.29 1266,-227 1266,-227 1266,-227 649.36,-227 649.36,-227 649.36,-227 649.36,-228.08 649.36,-228.08"/>
<polygon fill="black" stroke="black" points="645.86,-227.8 649.36,-237.8 652.86,-227.8 645.86,-227.8"/>
</g>
<!-- LocalStrategy -->
<g id="node17" class="node">
<title>LocalStrategy</title>
<ellipse fill="#fdb462" stroke="black" cx="1126" cy="-180" rx="65.41" ry="18"/>
<text text-anchor="middle" x="1126" y="-175.8" font-family="Times,serif" font-size="14.00">LocalStrategy</text>
</g>
<!-- LocalStrategy&#45;&gt;AuthenticationModule -->
<g id="edge17" class="edge">
<title>LocalStrategy&#45;&gt;AuthenticationModule</title>
<path fill="none" stroke="black" d="M1126,-198.1C1126,-209.09 1126,-221 1126,-221 1126,-221 628.68,-221 628.68,-221 628.68,-221 628.68,-227.68 628.68,-227.68"/>
<polygon fill="black" stroke="black" points="625.18,-227.68 628.68,-237.68 632.18,-227.68 625.18,-227.68"/>
</g>
<!-- ChessService -->
<g id="node19" class="node">
<title>ChessService</title>
<ellipse fill="#fdb462" stroke="black" cx="2120" cy="-180" rx="63.12" ry="18"/>
<text text-anchor="middle" x="2120" y="-175.8" font-family="Times,serif" font-size="14.00">ChessService</text>
</g>
<!-- ChessService&#45;&gt;ChessModule -->
<g id="edge19" class="edge">
<title>ChessService&#45;&gt;ChessModule</title>
<path fill="none" stroke="black" d="M2112,-198.01C2112,-198.01 2112,-227.85 2112,-227.85"/>
<polygon fill="black" stroke="black" points="2108.5,-227.85 2112,-237.85 2115.5,-227.85 2108.5,-227.85"/>
</g>
<!-- ElitedbService -->
<g id="node20" class="node">
<title>ElitedbService</title>
<ellipse fill="#fdb462" stroke="black" cx="612" cy="-104" rx="67.77" ry="18"/>
<text text-anchor="middle" x="612" y="-99.8" font-family="Times,serif" font-size="14.00">ElitedbService</text>
</g>
<!-- ElitedbService&#45;&gt;ElitedbModule -->
<g id="edge20" class="edge">
<title>ElitedbService&#45;&gt;ElitedbModule</title>
<path fill="none" stroke="black" d="M543.91,-104C528.12,-104 515.83,-104 515.83,-104 515.83,-104 515.83,-151.99 515.83,-151.99"/>
<polygon fill="black" stroke="black" points="512.33,-151.99 515.83,-161.99 519.33,-151.99 512.33,-151.99"/>
</g>
<!-- UserSettingsService -->
<g id="node24" class="node">
<title>UserSettingsService</title>
<ellipse fill="#fdb462" stroke="black" cx="297" cy="-104" rx="89.18" ry="18"/>
<text text-anchor="middle" x="297" y="-99.8" font-family="Times,serif" font-size="14.00">UserSettingsService</text>
</g>
<!-- UserSettingsService&#45;&gt;UsersModule -->
<g id="edge27" class="edge">
<title>UserSettingsService&#45;&gt;UsersModule</title>
<path fill="none" stroke="black" d="M363.66,-116.21C363.66,-116.21 363.66,-151.86 363.66,-151.86"/>
<polygon fill="black" stroke="black" points="360.16,-151.86 363.66,-161.86 367.16,-151.86 360.16,-151.86"/>
</g>
<!-- UsersService -->
<g id="node25" class="node">
<title>UsersService</title>
<ellipse fill="#fdb462" stroke="black" cx="128" cy="-104" rx="61.95" ry="18"/>
<text text-anchor="middle" x="128" y="-99.8" font-family="Times,serif" font-size="14.00">UsersService</text>
</g>
<!-- UsersService&#45;&gt;UsersModule -->
<g id="edge28" class="edge">
<title>UsersService&#45;&gt;UsersModule</title>
<path fill="none" stroke="black" d="M169.79,-117.75C169.79,-130.98 169.79,-149 169.79,-149 169.79,-149 340.97,-149 340.97,-149 340.97,-149 340.97,-151.97 340.97,-151.97"/>
<polygon fill="black" stroke="black" points="337.47,-151.97 340.97,-161.97 344.47,-151.97 337.47,-151.97"/>
</g>
</g>
</svg>
