<?xml version="1.0" encoding="UTF-8" standalone="no"?>
<!DOCTYPE svg PUBLIC "-//W3C//DTD SVG 1.1//EN"
 "http://www.w3.org/Graphics/SVG/1.1/DTD/svg11.dtd">
<!-- Generated by graphviz version 2.47.0 (20210316.0004)
 -->
<!-- Title: dependencies Pages: 1 -->
<svg width="2113pt" height="358pt"
 viewBox="0.00 0.00 2113.00 358.00" xmlns="http://www.w3.org/2000/svg" xmlns:xlink="http://www.w3.org/1999/xlink">
<g id="graph0" class="graph" transform="scale(1 1) rotate(0) translate(4 354)">
<title>dependencies</title>
<polygon fill="white" stroke="transparent" points="-4,4 -4,-354 2109,-354 2109,4 -4,4"/>
<text text-anchor="start" x="1031.51" y="-42.4" font-family="Times-12" font-weight="bold" font-size="14.00">Legend</text>
<polygon fill="#ffffb3" stroke="transparent" points="818.5,-10 818.5,-30 838.5,-30 838.5,-10 818.5,-10"/>
<text text-anchor="start" x="842.13" y="-15.4" font-family="Times-12" font-size="14.00"> &#160;Declarations</text>
<polygon fill="#8dd3c7" stroke="transparent" points="931.5,-10 931.5,-30 951.5,-30 951.5,-10 931.5,-10"/>
<text text-anchor="start" x="955.23" y="-15.4" font-family="Times-12" font-size="14.00"> &#160;Module</text>
<polygon fill="#80b1d3" stroke="transparent" points="1017.5,-10 1017.5,-30 1037.5,-30 1037.5,-10 1017.5,-10"/>
<text text-anchor="start" x="1041.28" y="-15.4" font-family="Times-12" font-size="14.00"> &#160;Bootstrap</text>
<polygon fill="#fdb462" stroke="transparent" points="1114.5,-10 1114.5,-30 1134.5,-30 1134.5,-10 1114.5,-10"/>
<text text-anchor="start" x="1138.17" y="-15.4" font-family="Times-12" font-size="14.00"> &#160;Providers</text>
<polygon fill="#fb8072" stroke="transparent" points="1210.5,-10 1210.5,-30 1230.5,-30 1230.5,-10 1210.5,-10"/>
<text text-anchor="start" x="1234.23" y="-15.4" font-family="Times-12" font-size="14.00"> &#160;Exports</text>
<g id="clust31" class="cluster">
<title>cluster_ElitedbModule</title>
<polygon fill="none" stroke="black" stroke-dasharray="1,5" points="1093,-138 1093,-266 1261,-266 1261,-138 1093,-138"/>
</g>
<g id="clust36" class="cluster">
<title>cluster_ElitedbModule_providers</title>
<polygon fill="none" stroke="black" points="1101,-146 1101,-198 1253,-198 1253,-146 1101,-146"/>
</g>
<g id="clust37" class="cluster">
<title>cluster_InfoResultsModule</title>
<polygon fill="none" stroke="black" stroke-dasharray="1,5" points="1723,-70 1723,-274 1925,-274 1925,-70 1723,-70"/>
</g>
<g id="clust40" class="cluster">
<title>cluster_InfoResultsModule_exports</title>
<polygon fill="none" stroke="black" points="1731,-214 1731,-266 1873,-266 1873,-214 1731,-214"/>
</g>
<g id="clust42" class="cluster">
<title>cluster_InfoResultsModule_providers</title>
<polygon fill="none" stroke="black" points="1731,-78 1731,-130 1917,-130 1917,-78 1731,-78"/>
</g>
<g id="clust43" class="cluster">
<title>cluster_MovesModule</title>
<polygon fill="none" stroke="black" stroke-dasharray="1,5" points="1933,-138 1933,-342 2097,-342 2097,-138 1933,-138"/>
</g>
<g id="clust46" class="cluster">
<title>cluster_MovesModule_exports</title>
<polygon fill="none" stroke="black" points="1941,-282 1941,-334 2057,-334 2057,-282 1941,-282"/>
</g>
<g id="clust48" class="cluster">
<title>cluster_MovesModule_providers</title>
<polygon fill="none" stroke="black" points="1941,-146 1941,-198 2089,-198 2089,-146 1941,-146"/>
</g>
<g id="clust49" class="cluster">
<title>cluster_UsersModule</title>
<polygon fill="none" stroke="black" stroke-dasharray="1,5" points="523,-70 523,-274 875,-274 875,-70 523,-70"/>
</g>
<g id="clust52" class="cluster">
<title>cluster_UsersModule_exports</title>
<polygon fill="none" stroke="black" points="689,-214 689,-266 799,-266 799,-214 689,-214"/>
</g>
<g id="clust54" class="cluster">
<title>cluster_UsersModule_providers</title>
<polygon fill="none" stroke="black" points="531,-78 531,-130 867,-130 867,-78 531,-78"/>
</g>
<g id="clust13" class="cluster">
<title>cluster_AuthenticationModule</title>
<polygon fill="none" stroke="black" stroke-dasharray="1,5" points="8,-138 8,-342 515,-342 515,-138 8,-138"/>
</g>
<g id="clust16" class="cluster">
<title>cluster_AuthenticationModule_exports</title>
<polygon fill="none" stroke="black" points="347,-282 347,-334 507,-334 507,-282 347,-282"/>
</g>
<g id="clust18" class="cluster">
<title>cluster_AuthenticationModule_providers</title>
<polygon fill="none" stroke="black" points="16,-146 16,-198 507,-198 507,-146 16,-146"/>
</g>
<g id="clust1" class="cluster">
<title>cluster_AnalysisModule</title>
<polygon fill="none" stroke="black" stroke-dasharray="1,5" points="883,-138 883,-266 1063,-266 1063,-138 883,-138"/>
</g>
<g id="clust6" class="cluster">
<title>cluster_AnalysisModule_providers</title>
<polygon fill="none" stroke="black" points="891,-146 891,-198 1055,-198 1055,-146 891,-146"/>
</g>
<g id="clust19" class="cluster">
<title>cluster_ChessModule</title>
<polygon fill="none" stroke="black" stroke-dasharray="1,5" points="1557,-138 1557,-342 1715,-342 1715,-138 1557,-138"/>
</g>
<g id="clust22" class="cluster">
<title>cluster_ChessModule_exports</title>
<polygon fill="none" stroke="black" points="1573,-282 1573,-334 1683,-334 1683,-282 1573,-282"/>
</g>
<g id="clust24" class="cluster">
<title>cluster_ChessModule_providers</title>
<polygon fill="none" stroke="black" points="1565,-146 1565,-198 1707,-198 1707,-146 1565,-146"/>
</g>
<g id="clust7" class="cluster">
<title>cluster_AppModule</title>
<polygon fill="none" stroke="black" stroke-dasharray="1,5" points="1269,-206 1269,-334 1549,-334 1549,-206 1269,-206"/>
</g>
<g id="clust12" class="cluster">
<title>cluster_AppModule_providers</title>
<polygon fill="none" stroke="black" points="1411,-214 1411,-266 1541,-266 1541,-214 1411,-214"/>
</g>
<g id="clust9" class="cluster">
<title>cluster_AppModule_imports</title>
<polygon fill="none" stroke="black" points="1277,-214 1277,-266 1403,-266 1403,-214 1277,-214"/>
</g>
<!-- AnalysisService -->
<g id="node1" class="node">
<title>AnalysisService</title>
<ellipse fill="#fdb462" stroke="black" cx="973" cy="-172" rx="73.57" ry="18"/>
<text text-anchor="middle" x="973" y="-167.8" font-family="Times,serif" font-size="14.00">AnalysisService</text>
</g>
<!-- AnalysisModule -->
<g id="node4" class="node">
<title>AnalysisModule</title>
<polygon fill="#8dd3c7" stroke="black" points="1055.04,-258 1052.04,-262 1031.04,-262 1028.04,-258 946.96,-258 946.96,-222 1055.04,-222 1055.04,-258"/>
<text text-anchor="middle" x="1001" y="-235.8" font-family="Times,serif" font-size="14.00">AnalysisModule</text>
</g>
<!-- AnalysisService&#45;&gt;AnalysisModule -->
<g id="edge1" class="edge">
<title>AnalysisService&#45;&gt;AnalysisModule</title>
<path fill="none" stroke="black" d="M996.76,-189.16C996.76,-189.16 996.76,-211.65 996.76,-211.65"/>
<polygon fill="black" stroke="black" points="993.26,-211.65 996.76,-221.65 1000.26,-211.65 993.26,-211.65"/>
</g>
<!-- InfoResultsService -->
<g id="node2" class="node">
<title>InfoResultsService</title>
<ellipse fill="#fdb462" stroke="black" cx="1824" cy="-104" rx="84.52" ry="18"/>
<text text-anchor="middle" x="1824" y="-99.8" font-family="Times,serif" font-size="14.00">InfoResultsService</text>
</g>
<!-- InfoResultsService&#45;&gt;AnalysisModule -->
<g id="edge2" class="edge">
<title>InfoResultsService&#45;&gt;AnalysisModule</title>
<path fill="none" stroke="black" d="M1739.28,-104C1538.35,-104 1049.61,-104 1049.61,-104 1049.61,-104 1049.61,-211.94 1049.61,-211.94"/>
<polygon fill="black" stroke="black" points="1046.11,-211.94 1049.61,-221.94 1053.11,-211.94 1046.11,-211.94"/>
</g>
<!-- InfoResultsModule -->
<g id="node9" class="node">
<title>InfoResultsModule</title>
<polygon fill="#8dd3c7" stroke="black" points="1901.09,-190 1898.09,-194 1877.09,-194 1874.09,-190 1776.91,-190 1776.91,-154 1901.09,-154 1901.09,-190"/>
<text text-anchor="middle" x="1839" y="-167.8" font-family="Times,serif" font-size="14.00">InfoResultsModule</text>
</g>
<!-- InfoResultsService&#45;&gt;InfoResultsModule -->
<g id="edge22" class="edge">
<title>InfoResultsService&#45;&gt;InfoResultsModule</title>
<path fill="none" stroke="black" d="M1839,-121.87C1839,-121.87 1839,-143.54 1839,-143.54"/>
<polygon fill="black" stroke="black" points="1835.5,-143.54 1839,-153.54 1842.5,-143.54 1835.5,-143.54"/>
</g>
<!-- MovesService -->
<g id="node3" class="node">
<title>MovesService</title>
<ellipse fill="#fdb462" stroke="black" cx="2015" cy="-172" rx="66.05" ry="18"/>
<text text-anchor="middle" x="2015" y="-167.8" font-family="Times,serif" font-size="14.00">MovesService</text>
</g>
<!-- MovesService&#45;&gt;AnalysisModule -->
<g id="edge3" class="edge">
<title>MovesService&#45;&gt;AnalysisModule</title>
<path fill="none" stroke="black" d="M1980.09,-187.41C1980.09,-196.4 1980.09,-206 1980.09,-206 1980.09,-206 1052.44,-206 1052.44,-206 1052.44,-206 1052.44,-211.81 1052.44,-211.81"/>
<polygon fill="black" stroke="black" points="1048.94,-211.81 1052.44,-221.81 1055.94,-211.81 1048.94,-211.81"/>
</g>
<!-- MovesModule -->
<g id="node10" class="node">
<title>MovesModule</title>
<polygon fill="#8dd3c7" stroke="black" points="2042.65,-258 2039.65,-262 2018.65,-262 2015.65,-258 1945.35,-258 1945.35,-222 2042.65,-222 2042.65,-258"/>
<text text-anchor="middle" x="1994" y="-235.8" font-family="Times,serif" font-size="14.00">MovesModule</text>
</g>
<!-- MovesService&#45;&gt;MovesModule -->
<g id="edge25" class="edge">
<title>MovesService&#45;&gt;MovesModule</title>
<path fill="none" stroke="black" d="M2011.46,-190.22C2011.46,-190.22 2011.46,-211.73 2011.46,-211.73"/>
<polygon fill="black" stroke="black" points="2007.96,-211.73 2011.46,-221.73 2014.96,-211.73 2007.96,-211.73"/>
</g>
<!-- AppModule -->
<g id="node12" class="node">
<title>AppModule</title>
<polygon fill="#8dd3c7" stroke="black" points="1381.66,-326 1378.66,-330 1357.66,-330 1354.66,-326 1298.34,-326 1298.34,-290 1381.66,-290 1381.66,-326"/>
<text text-anchor="middle" x="1340" y="-303.8" font-family="Times,serif" font-size="14.00">AppModule</text>
</g>
<!-- AnalysisModule&#45;&gt;AppModule -->
<g id="edge4" class="edge">
<title>AnalysisModule&#45;&gt;AppModule</title>
<path fill="none" stroke="black" d="M1001,-258.11C1001,-277.34 1001,-305 1001,-305 1001,-305 1288.09,-305 1288.09,-305"/>
<polygon fill="black" stroke="black" points="1288.09,-308.5 1298.09,-305 1288.09,-301.5 1288.09,-308.5"/>
</g>
<!-- AuthenticationModule -->
<g id="node5" class="node">
<title>AuthenticationModule</title>
<polygon fill="#8dd3c7" stroke="black" points="502.25,-258 499.25,-262 478.25,-262 475.25,-258 359.75,-258 359.75,-222 502.25,-222 502.25,-258"/>
<text text-anchor="middle" x="431" y="-235.8" font-family="Times,serif" font-size="14.00">AuthenticationModule</text>
</g>
<!-- AuthenticationModule&#45;&gt;AppModule -->
<g id="edge5" class="edge">
<title>AuthenticationModule&#45;&gt;AppModule</title>
<path fill="none" stroke="black" d="M502.55,-234C513.21,-234 520.7,-234 520.7,-234 520.7,-234 520.7,-319 520.7,-319 520.7,-319 1288.24,-319 1288.24,-319"/>
<polygon fill="black" stroke="black" points="1288.24,-322.5 1298.24,-319 1288.24,-315.5 1288.24,-322.5"/>
</g>
<!-- AuthenticationService  -->
<g id="node14" class="node">
<title>AuthenticationService </title>
<polygon fill="#fb8072" stroke="black" points="499.18,-326 354.82,-326 354.82,-290 499.18,-290 499.18,-326"/>
<text text-anchor="middle" x="427" y="-303.8" font-family="Times,serif" font-size="14.00">AuthenticationService </text>
</g>
<!-- AuthenticationModule&#45;&gt;AuthenticationService  -->
<g id="edge14" class="edge">
<title>AuthenticationModule&#45;&gt;AuthenticationService </title>
<path fill="none" stroke="black" stroke-dasharray="5,2" d="M429.48,-258.22C429.48,-258.22 429.48,-279.73 429.48,-279.73"/>
<polygon fill="black" stroke="black" points="425.98,-279.73 429.48,-289.73 432.98,-279.73 425.98,-279.73"/>
</g>
<!-- ChessModule -->
<g id="node6" class="node">
<title>ChessModule</title>
<polygon fill="#8dd3c7" stroke="black" points="1674.49,-258 1671.49,-262 1650.49,-262 1647.49,-258 1581.51,-258 1581.51,-222 1674.49,-222 1674.49,-258"/>
<text text-anchor="middle" x="1628" y="-235.8" font-family="Times,serif" font-size="14.00">ChessModule</text>
</g>
<!-- ChessModule&#45;&gt;AppModule -->
<g id="edge6" class="edge">
<title>ChessModule&#45;&gt;AppModule</title>
<path fill="none" stroke="black" d="M1581.47,-240C1578.54,-240 1576.74,-240 1576.74,-240 1576.74,-240 1576.74,-314 1576.74,-314 1576.74,-314 1391.78,-314 1391.78,-314"/>
<polygon fill="black" stroke="black" points="1391.78,-310.5 1381.78,-314 1391.78,-317.5 1391.78,-310.5"/>
</g>
<!-- ChessService  -->
<g id="node18" class="node">
<title>ChessService </title>
<polygon fill="#fb8072" stroke="black" points="1675.42,-326 1580.58,-326 1580.58,-290 1675.42,-290 1675.42,-326"/>
<text text-anchor="middle" x="1628" y="-303.8" font-family="Times,serif" font-size="14.00">ChessService </text>
</g>
<!-- ChessModule&#45;&gt;ChessService  -->
<g id="edge18" class="edge">
<title>ChessModule&#45;&gt;ChessService </title>
<path fill="none" stroke="black" stroke-dasharray="5,2" d="M1628,-258.22C1628,-258.22 1628,-279.73 1628,-279.73"/>
<polygon fill="black" stroke="black" points="1624.5,-279.73 1628,-289.73 1631.5,-279.73 1624.5,-279.73"/>
</g>
<!-- DatabaseModule -->
<g id="node7" class="node">
<title>DatabaseModule</title>
<polygon fill="#8dd3c7" stroke="black" points="1395.35,-258 1392.35,-262 1371.35,-262 1368.35,-258 1284.65,-258 1284.65,-222 1395.35,-222 1395.35,-258"/>
<text text-anchor="middle" x="1340" y="-235.8" font-family="Times,serif" font-size="14.00">DatabaseModule</text>
</g>
<!-- DatabaseModule&#45;&gt;AppModule -->
<g id="edge7" class="edge">
<title>DatabaseModule&#45;&gt;AppModule</title>
<path fill="none" stroke="black" d="M1319.09,-258.22C1319.09,-258.22 1319.09,-279.73 1319.09,-279.73"/>
<polygon fill="black" stroke="black" points="1315.59,-279.73 1319.09,-289.73 1322.59,-279.73 1315.59,-279.73"/>
</g>
<!-- ElitedbModule -->
<g id="node8" class="node">
<title>ElitedbModule</title>
<polygon fill="#8dd3c7" stroke="black" points="1239.99,-258 1236.99,-262 1215.99,-262 1212.99,-258 1140.01,-258 1140.01,-222 1239.99,-222 1239.99,-258"/>
<text text-anchor="middle" x="1190" y="-235.8" font-family="Times,serif" font-size="14.00">ElitedbModule</text>
</g>
<!-- ElitedbModule&#45;&gt;AppModule -->
<g id="edge8" class="edge">
<title>ElitedbModule&#45;&gt;AppModule</title>
<path fill="none" stroke="black" d="M1190,-258.03C1190,-275.06 1190,-298 1190,-298 1190,-298 1288.22,-298 1288.22,-298"/>
<polygon fill="black" stroke="black" points="1288.22,-301.5 1298.22,-298 1288.22,-294.5 1288.22,-301.5"/>
</g>
<!-- InfoResultsModule&#45;&gt;MovesModule -->
<g id="edge23" class="edge">
<title>InfoResultsModule&#45;&gt;MovesModule</title>
<path fill="none" stroke="black" d="M1889.03,-190.22C1889.03,-210.37 1889.03,-240 1889.03,-240 1889.03,-240 1935.2,-240 1935.2,-240"/>
<polygon fill="black" stroke="black" points="1935.2,-243.5 1945.2,-240 1935.2,-236.5 1935.2,-243.5"/>
</g>
<!-- InfoResultsModule&#45;&gt;AppModule -->
<g id="edge9" class="edge">
<title>InfoResultsModule&#45;&gt;AppModule</title>
<path fill="none" stroke="black" d="M1877.02,-190.24C1877.02,-218.34 1877.02,-269 1877.02,-269 1877.02,-269 1340,-269 1340,-269 1340,-269 1340,-279.87 1340,-279.87"/>
<polygon fill="black" stroke="black" points="1336.5,-279.87 1340,-289.87 1343.5,-279.87 1336.5,-279.87"/>
</g>
<!-- InfoResultsService  -->
<g id="node21" class="node">
<title>InfoResultsService </title>
<polygon fill="#fb8072" stroke="black" points="1865.02,-258 1738.98,-258 1738.98,-222 1865.02,-222 1865.02,-258"/>
<text text-anchor="middle" x="1802" y="-235.8" font-family="Times,serif" font-size="14.00">InfoResultsService </text>
</g>
<!-- InfoResultsModule&#45;&gt;InfoResultsService  -->
<g id="edge21" class="edge">
<title>InfoResultsModule&#45;&gt;InfoResultsService </title>
<path fill="none" stroke="black" stroke-dasharray="5,2" d="M1820.98,-190.22C1820.98,-190.22 1820.98,-211.73 1820.98,-211.73"/>
<polygon fill="black" stroke="black" points="1817.48,-211.73 1820.98,-221.73 1824.48,-211.73 1817.48,-211.73"/>
</g>
<!-- MovesModule&#45;&gt;AppModule -->
<g id="edge10" class="edge">
<title>MovesModule&#45;&gt;AppModule</title>
<path fill="none" stroke="black" d="M1980.42,-258.13C1980.42,-268.71 1980.42,-280 1980.42,-280 1980.42,-280 1360.91,-280 1360.91,-280 1360.91,-280 1360.91,-280.98 1360.91,-280.98"/>
<polygon fill="black" stroke="black" points="1357.41,-279.79 1360.91,-289.79 1364.41,-279.79 1357.41,-279.79"/>
</g>
<!-- MovesService  -->
<g id="node22" class="node">
<title>MovesService </title>
<polygon fill="#fb8072" stroke="black" points="2048.58,-326 1949.42,-326 1949.42,-290 2048.58,-290 2048.58,-326"/>
<text text-anchor="middle" x="1999" y="-303.8" font-family="Times,serif" font-size="14.00">MovesService </text>
</g>
<!-- MovesModule&#45;&gt;MovesService  -->
<g id="edge24" class="edge">
<title>MovesModule&#45;&gt;MovesService </title>
<path fill="none" stroke="black" stroke-dasharray="5,2" d="M2011.62,-258.22C2011.62,-258.22 2011.62,-279.73 2011.62,-279.73"/>
<polygon fill="black" stroke="black" points="2008.12,-279.73 2011.62,-289.73 2015.12,-279.73 2008.12,-279.73"/>
</g>
<!-- UsersModule -->
<g id="node11" class="node">
<title>UsersModule</title>
<polygon fill="#8dd3c7" stroke="black" points="714.92,-190 711.92,-194 690.92,-194 687.92,-190 623.08,-190 623.08,-154 714.92,-154 714.92,-190"/>
<text text-anchor="middle" x="669" y="-167.8" font-family="Times,serif" font-size="14.00">UsersModule</text>
</g>
<!-- UsersModule&#45;&gt;AuthenticationModule -->
<g id="edge13" class="edge">
<title>UsersModule&#45;&gt;AuthenticationModule</title>
<path fill="none" stroke="black" d="M647.97,-190.29C647.97,-212.21 647.97,-246 647.97,-246 647.97,-246 512.34,-246 512.34,-246"/>
<polygon fill="black" stroke="black" points="512.34,-242.5 502.34,-246 512.34,-249.5 512.34,-242.5"/>
</g>
<!-- UsersModule&#45;&gt;AppModule -->
<g id="edge11" class="edge">
<title>UsersModule&#45;&gt;AppModule</title>
<path fill="none" stroke="black" d="M672.65,-190.02C672.65,-227.83 672.65,-312 672.65,-312 672.65,-312 1288.25,-312 1288.25,-312"/>
<polygon fill="black" stroke="black" points="1288.25,-315.5 1298.25,-312 1288.25,-308.5 1288.25,-315.5"/>
</g>
<!-- UsersService  -->
<g id="node23" class="node">
<title>UsersService </title>
<polygon fill="#fb8072" stroke="black" points="790.85,-258 697.15,-258 697.15,-222 790.85,-222 790.85,-258"/>
<text text-anchor="middle" x="744" y="-235.8" font-family="Times,serif" font-size="14.00">UsersService </text>
</g>
<!-- UsersModule&#45;&gt;UsersService  -->
<g id="edge26" class="edge">
<title>UsersModule&#45;&gt;UsersService </title>
<path fill="none" stroke="black" stroke-dasharray="5,2" d="M706.02,-190.22C706.02,-190.22 706.02,-211.73 706.02,-211.73"/>
<polygon fill="black" stroke="black" points="702.52,-211.73 706.02,-221.73 709.52,-211.73 702.52,-211.73"/>
</g>
<!-- AppService -->
<g id="node13" class="node">
<title>AppService</title>
<ellipse fill="#fdb462" stroke="black" cx="1476" cy="-240" rx="56.74" ry="18"/>
<text text-anchor="middle" x="1476" y="-235.8" font-family="Times,serif" font-size="14.00">AppService</text>
</g>
<!-- AppService&#45;&gt;AppModule -->
<g id="edge12" class="edge">
<title>AppService&#45;&gt;AppModule</title>
<path fill="none" stroke="black" d="M1476,-258.27C1476,-276.56 1476,-302 1476,-302 1476,-302 1391.91,-302 1391.91,-302"/>
<polygon fill="black" stroke="black" points="1391.91,-298.5 1381.91,-302 1391.91,-305.5 1391.91,-298.5"/>
</g>
<!-- AuthenticationService -->
<g id="node15" class="node">
<title>AuthenticationService</title>
<ellipse fill="#fdb462" stroke="black" cx="121" cy="-172" rx="97.27" ry="18"/>
<text text-anchor="middle" x="121" y="-167.8" font-family="Times,serif" font-size="14.00">AuthenticationService</text>
</g>
<!-- AuthenticationService&#45;&gt;AuthenticationModule -->
<g id="edge15" class="edge">
<title>AuthenticationService&#45;&gt;AuthenticationModule</title>
<path fill="none" stroke="black" d="M121,-190.22C121,-210.37 121,-240 121,-240 121,-240 349.49,-240 349.49,-240"/>
<polygon fill="black" stroke="black" points="349.49,-243.5 359.49,-240 349.49,-236.5 349.49,-243.5"/>
</g>
<!-- JwtStrategy -->
<g id="node16" class="node">
<title>JwtStrategy</title>
<ellipse fill="#fdb462" stroke="black" cx="442" cy="-172" rx="56.76" ry="18"/>
<text text-anchor="middle" x="442" y="-167.8" font-family="Times,serif" font-size="14.00">JwtStrategy</text>
</g>
<!-- JwtStrategy&#45;&gt;AuthenticationModule -->
<g id="edge16" class="edge">
<title>JwtStrategy&#45;&gt;AuthenticationModule</title>
<path fill="none" stroke="black" d="M442,-190.22C442,-190.22 442,-211.73 442,-211.73"/>
<polygon fill="black" stroke="black" points="438.5,-211.73 442,-221.73 445.5,-211.73 438.5,-211.73"/>
</g>
<!-- LocalStrategy -->
<g id="node17" class="node">
<title>LocalStrategy</title>
<ellipse fill="#fdb462" stroke="black" cx="302" cy="-172" rx="65.41" ry="18"/>
<text text-anchor="middle" x="302" y="-167.8" font-family="Times,serif" font-size="14.00">LocalStrategy</text>
</g>
<!-- LocalStrategy&#45;&gt;AuthenticationModule -->
<g id="edge17" class="edge">
<title>LocalStrategy&#45;&gt;AuthenticationModule</title>
<path fill="none" stroke="black" d="M363.41,-178.28C363.41,-178.28 363.41,-211.8 363.41,-211.8"/>
<polygon fill="black" stroke="black" points="359.91,-211.8 363.41,-221.8 366.91,-211.8 359.91,-211.8"/>
</g>
<!-- ChessService -->
<g id="node19" class="node">
<title>ChessService</title>
<ellipse fill="#fdb462" stroke="black" cx="1636" cy="-172" rx="63.12" ry="18"/>
<text text-anchor="middle" x="1636" y="-167.8" font-family="Times,serif" font-size="14.00">ChessService</text>
</g>
<!-- ChessService&#45;&gt;ChessModule -->
<g id="edge19" class="edge">
<title>ChessService&#45;&gt;ChessModule</title>
<path fill="none" stroke="black" d="M1628,-189.87C1628,-189.87 1628,-211.54 1628,-211.54"/>
<polygon fill="black" stroke="black" points="1624.5,-211.54 1628,-221.54 1631.5,-211.54 1624.5,-211.54"/>
</g>
<!-- ElitedbService -->
<g id="node20" class="node">
<title>ElitedbService</title>
<ellipse fill="#fdb462" stroke="black" cx="1177" cy="-172" rx="67.77" ry="18"/>
<text text-anchor="middle" x="1177" y="-167.8" font-family="Times,serif" font-size="14.00">ElitedbService</text>
</g>
<!-- ElitedbService&#45;&gt;ElitedbModule -->
<g id="edge20" class="edge">
<title>ElitedbService&#45;&gt;ElitedbModule</title>
<path fill="none" stroke="black" d="M1190,-189.87C1190,-189.87 1190,-211.54 1190,-211.54"/>
<polygon fill="black" stroke="black" points="1186.5,-211.54 1190,-221.54 1193.5,-211.54 1186.5,-211.54"/>
</g>
<!-- UserSettingsService -->
<g id="node24" class="node">
<title>UserSettingsService</title>
<ellipse fill="#fdb462" stroke="black" cx="770" cy="-104" rx="89.18" ry="18"/>
<text text-anchor="middle" x="770" y="-99.8" font-family="Times,serif" font-size="14.00">UserSettingsService</text>
</g>
<!-- UserSettingsService&#45;&gt;UsersModule -->
<g id="edge27" class="edge">
<title>UserSettingsService&#45;&gt;UsersModule</title>
<path fill="none" stroke="black" d="M697.69,-114.62C697.69,-114.62 697.69,-143.78 697.69,-143.78"/>
<polygon fill="black" stroke="black" points="694.19,-143.78 697.69,-153.78 701.19,-143.78 694.19,-143.78"/>
</g>
<!-- UsersService -->
<g id="node25" class="node">
<title>UsersService</title>
<ellipse fill="#fdb462" stroke="black" cx="601" cy="-104" rx="61.95" ry="18"/>
<text text-anchor="middle" x="601" y="-99.8" font-family="Times,serif" font-size="14.00">UsersService</text>
</g>
<!-- UsersService&#45;&gt;UsersModule -->
<g id="edge28" class="edge">
<title>UsersService&#45;&gt;UsersModule</title>
<path fill="none" stroke="black" d="M643.13,-117.43C643.13,-117.43 643.13,-143.96 643.13,-143.96"/>
<polygon fill="black" stroke="black" points="639.63,-143.96 643.13,-153.96 646.63,-143.96 639.63,-143.96"/>
</g>
</g>
</svg>
